<svg width="270" height="72" viewBox="0 0 270 72" fill="none" xmlns="http://www.w3.org/2000/svg">
<path fill-rule="evenodd" clip-rule="evenodd" d="M53.5513 2.3302V22.6078C53.5513 28.4541 50.5263 31.8088 45.2547 31.8088C40.0269 31.8088 37.0279 28.4541 37.0279 22.6078V2.3302H33.9815V22.6575C33.9815 30.2861 38.1955 34.8419 45.2547 34.8419C52.1719 34.8419 56.6402 30.0601 56.6402 22.6575V2.3302H53.5513Z" fill="#72C4D5"/>
<path fill-rule="evenodd" clip-rule="evenodd" d="M11.5749 53.9671C7.31229 52.1098 5.14603 50.6356 5.14603 47.739C5.14603 44.6371 7.8555 42.4705 11.7331 42.4705C13.8176 42.4705 16.03 43.1435 17.8007 44.3169L18.2213 44.596L19.8747 41.8784L19.5306 41.6584C17.3235 40.2579 14.6325 39.4882 11.9533 39.4882C6.1283 39.4882 1.73514 43.1073 1.73514 47.907C1.73514 52.3817 5.06956 54.6921 10.0732 56.7802C14.8236 58.8091 16.9437 60.2543 16.9437 63.4626C16.9437 66.7373 14.1789 69.026 10.2208 69.026C7.5918 69.026 4.84542 68.1222 2.05949 66.3386L1.63362 66.0667L3.05176e-05 68.8738L0.342834 69.0877C3.51244 71.0477 6.67151 71.9999 10.0033 71.9999C15.9272 71.9999 20.3929 68.2055 20.3929 63.1738C20.3929 58.5904 17.2931 56.402 11.5749 53.9671Z" fill="#72C4D5"/>
<path fill-rule="evenodd" clip-rule="evenodd" d="M33.0306 55.2942L49.2441 39.4882H44.8588L30.4865 53.6167V39.4882H27.1869V71.9999H30.4865V56.9881L45.3808 71.9999H49.8456L33.0306 55.2942Z" fill="#72C4D5"/>
<path fill-rule="evenodd" clip-rule="evenodd" d="M57.65 71.9999H61.25V39.4882H57.65V71.9999Z" fill="#72C4D5"/>
<path fill-rule="evenodd" clip-rule="evenodd" d="M94.7143 71.9999L73.7045 47.2829V71.8164H70.2407V39.7262L71.2323 39.4882L92.0603 63.9869V39.6419H95.1653V71.9156L94.7143 71.9999Z" fill="#72C4D5"/>
<path fill-rule="evenodd" clip-rule="evenodd" d="M26.7389 34.8419L5.72904 10.1249V34.3695H2.26529V2.56825L3.25692 2.3302L24.0849 26.829V2.7567H27.1899V34.7576L26.7389 34.8419Z" fill="#72C4D5"/>
<rect x="150" y="19" width="4" height="36" />
<path fill-rule="evenodd" clip-rule="evenodd" d="M99.6854 14.7893C99.1852 13.6661 98.5169 12.6597 97.6191 11.8197C93.6273 8.08065 87.2022 9.67136 85.2915 14.8679C84.8768 15.9963 84.6602 17.1602 84.6617 18.3681C84.6676 22.2564 84.6668 26.1447 84.666 30.0328V30.0328V30.0329V30.0329C84.6657 31.3935 84.6654 32.754 84.6654 34.1146C84.6654 35.0071 84.6651 35.0071 83.692 34.9528C83.6888 34.9007 83.6848 34.8479 83.6807 34.7945C83.6715 34.672 83.662 34.5466 83.662 34.4212C83.6614 32.9874 83.6605 31.5535 83.6596 30.1197V30.1196V30.1194V30.1193C83.6567 25.6229 83.6539 21.1267 83.6632 16.6301C83.6711 12.694 85.8199 9.51259 89.2879 8.26856C89.7057 8.11859 90.1431 8.01234 90.5793 7.92613C90.8787 7.86648 91.1828 7.83168 91.4877 7.79679C91.6235 7.78126 91.7594 7.7657 91.8952 7.74793C91.3548 5.29113 86.8454 2.43725 83.1841 2.30156C78.9023 2.14248 75.2545 4.864 73.8488 7.74672C73.9835 7.76339 74.1171 7.77773 74.2496 7.79195C74.5272 7.82173 74.8001 7.85101 75.0694 7.90032C78.7494 8.57304 81.4489 11.3498 81.9773 15.0245C82.0716 15.6803 82.1274 16.3466 82.1292 17.0093C82.135 19.8852 82.1356 22.7611 82.1363 25.637V25.6401C82.1369 28.5572 82.1376 31.4742 82.1436 34.3912C82.1448 34.8475 82.037 35.039 81.5392 34.9831C81.1711 34.9416 81.0969 34.7831 81.0991 34.4555C81.1077 33.0869 81.1066 31.7187 81.1054 30.3503V30.3502V30.3501V30.35L81.1054 30.3467C81.105 29.8758 81.1046 29.4049 81.1046 28.9339C81.1046 27.8573 81.1074 26.7808 81.1103 25.7041V25.704V25.7039V25.7038C81.117 23.1337 81.1238 20.5634 81.092 17.9932C81.0651 15.8156 80.382 13.8242 78.8796 12.1959C75.687 8.73454 69.2873 8.63193 66.4151 14.1676C66.3416 14.3096 66.273 14.4542 66.1911 14.6266C66.1457 14.7223 66.0962 14.8266 66.0395 14.9438C67.4084 6.91493 74.8174 0.85686 83.0708 1.00257C91.9521 1.15922 98.3879 7.53664 99.6854 14.7893ZM88.7537 33.9677C88.7472 33.9092 88.74 33.857 88.7333 33.8089L88.7333 33.8088C88.7209 33.7201 88.7105 33.6451 88.7105 33.5697C88.7115 32.713 88.7106 31.8562 88.7096 30.9994V30.9994V30.9993V30.9993C88.7071 28.7551 88.7046 26.5108 88.7375 24.267C88.7589 22.7477 89.1721 21.3197 90.3379 20.2399C91.8354 18.8535 93.6209 18.7105 95.4312 19.409C97.2289 20.1036 98.1426 21.5643 98.2709 23.4498C98.4051 25.4154 97.549 27.0532 96.3525 28.5428C94.4513 30.9107 92.0808 32.6626 89.2576 33.8131C89.1553 33.8551 89.0485 33.8846 88.9331 33.9164C88.8756 33.9323 88.8159 33.9488 88.7537 33.9677ZM75.9818 33.5723C76.322 33.7387 76.669 33.9085 77.0222 34.0891C77.0307 33.9724 77.039 33.8766 77.0461 33.7942L77.0461 33.7942L77.0461 33.7941C77.0589 33.6465 77.0679 33.542 77.0681 33.4373C77.0685 32.7338 77.0697 32.0302 77.0709 31.3266V31.3265V31.3264C77.0747 29.1003 77.0785 26.874 77.0583 24.6477C77.0519 23.9735 76.9673 23.2835 76.8038 22.6293C76.1982 20.201 74.4005 18.9357 71.8214 19.0632C69.6347 19.1701 67.9022 20.7805 67.5441 23.0679C67.3147 24.5327 67.7282 25.8833 68.4627 27.1243C69.7942 29.3728 71.6621 31.1183 73.8908 32.4714C74.5525 32.8733 75.2516 33.2152 75.9818 33.5723ZM79.5694 34.6225C78.7148 34.6669 78.5969 34.5667 78.5969 33.8087C78.5966 29.6296 78.5966 25.4508 78.5966 21.2717V21.2329C78.5966 18.7324 77.338 16.7583 75.2153 15.9277C72.7354 14.9581 69.9964 15.4975 68.2998 17.2637C67.0268 18.5888 66.5848 20.2126 66.4953 21.9761C66.4864 22.1448 66.4736 22.313 66.3569 22.5024C66.3281 22.3673 66.2966 22.2325 66.265 22.0977C66.198 21.8107 66.1308 21.5235 66.0898 21.2329C65.8496 19.529 66.0699 17.9076 67.0108 16.421C67.6624 15.3922 68.5335 14.6178 69.6919 14.2043C72.1785 13.3167 74.6232 13.3989 76.9682 14.6533C78.6915 15.5752 79.5743 17.0785 79.5887 18.9922C79.6168 22.7181 79.6113 26.4445 79.6057 30.1709L79.6057 30.1732C79.6036 31.5585 79.6016 32.9439 79.6013 34.3293C79.6013 34.3978 79.5913 34.4663 79.5815 34.5335C79.5771 34.5635 79.5728 34.5932 79.5694 34.6225ZM86.1617 34.0114V34.645C87.1548 34.6116 87.1781 34.5888 87.1781 33.7264C87.1782 32.4427 87.1775 31.159 87.1767 29.8752C87.1749 26.9679 87.1731 24.0603 87.1826 21.1527C87.1888 19.2333 87.87 17.577 89.5115 16.4978C92.6677 14.4244 97.6764 15.3324 98.9528 19.8914C99.1185 20.4815 99.1999 21.0949 99.2814 21.7081C99.3187 21.9893 99.3561 22.2703 99.4015 22.5492C99.5663 21.8555 99.7201 21.143 99.7663 20.4245C99.9516 17.5002 98.4128 15.0194 95.8551 14.115C94.3686 13.5896 92.8288 13.4712 91.2832 13.7799C88.2461 14.3852 86.0907 16.0275 86.1455 19.8538C86.1928 23.1488 86.1819 26.4449 86.1711 29.741C86.1664 31.1645 86.1617 32.588 86.1617 34.0114Z" />
<g clip-path="url(#clip0_12507_39343)">
<path fill-rule="evenodd" clip-rule="evenodd" d="M240.285 20.7969C240.287 20.9257 240.289 21.0421 240.289 21.1445L241.65 21.1438C241.651 20.5297 241.702 19.6788 241.893 18.7324L241.895 18.7233C242.09 17.8068 242.53 15.7435 244.128 13.7782C246.144 11.3134 248.695 10.5493 249.302 10.3768C252.436 9.51408 254.963 10.4753 255.473 10.6725C258.21 11.7539 259.595 13.791 260.084 14.5114L260.088 14.5176C261.022 15.9147 261.395 17.198 261.595 17.8868L261.619 17.9683L261.623 17.9839C261.794 18.6267 262.08 19.7052 262.008 21.1232V21.1756C264.038 21.4302 265.8 22.8322 266.575 24.8944L269.393 32.2395C270.316 34.655 270.146 37.1444 268.931 39.067C267.789 40.8662 265.87 41.9754 263.562 42.2219V45.9191V45.9684V66.7219C263.562 68.4965 262.129 69.9508 260.38 69.9508H224.863H223.406H218.596C216.847 69.9508 215.413 68.4965 215.413 66.7219V52.7219V52.5986V42.912V42.7888V42.2465C213.106 42 211.186 40.8662 210.045 39.0916C208.83 37.1691 208.66 34.6796 209.583 32.2641L212.401 24.9191C213.175 22.9305 214.938 21.5044 216.968 21.2008V21.1232C216.896 19.7052 217.182 18.6267 217.353 17.9839L217.357 17.9683L217.396 17.8382C217.62 17.1017 217.995 15.8643 218.887 14.5176C219.373 13.7782 220.782 11.7324 223.503 10.6725L223.536 10.6607C224.003 10.4926 225.747 9.86519 228.046 10.1056C228.92 10.2042 231.593 10.5986 233.925 12.7922C236.257 15.0106 236.84 17.6479 237.059 18.7324C237.274 19.7277 237.301 20.5557 237.301 21.1457L238.736 21.1451C238.759 20.7751 238.758 20.2197 238.735 19.5704C238.687 18.2435 238.547 17.2471 238.518 17.0438L238.516 17.0317C238.322 15.8239 237.69 12.8415 235.164 10.4014C232.491 7.81337 229.358 7.41901 228.362 7.34506C228.277 7.33274 228.198 7.32658 228.119 7.32042L228.119 7.32041C228.04 7.31425 227.961 7.30809 227.876 7.29577C227.9 7.24647 227.924 7.17253 227.949 7.09858C227.949 7.09858 228.022 6.87675 228.119 6.67957C229.649 3.57393 233.22 1.62675 233.22 1.62675C236.068 0.084261 238.7 0.00103871 239.496 -0.0241594L239.512 -0.0246582L239.528 -0.0241594C240.325 0.00103872 242.957 0.0842612 245.804 1.62675C245.804 1.62675 249.375 3.57393 250.906 6.67957C251.003 6.9014 251.076 7.09858 251.076 7.09858C251.105 7.14399 251.117 7.18939 251.127 7.22909C251.133 7.25404 251.139 7.27674 251.149 7.29577C251.064 7.30809 250.985 7.31425 250.906 7.32041C250.827 7.32658 250.748 7.33274 250.663 7.34506C249.667 7.44365 246.509 7.83802 243.861 10.4014C241.31 12.8662 240.703 15.8239 240.508 17.0317C240.46 17.2042 240.338 18.2394 240.29 19.5704C240.272 20.0398 240.279 20.4601 240.285 20.7967V20.7968L240.285 20.7969ZM246.051 21.1411L243.743 21.1426C243.819 20.5972 244.017 19.7017 244.614 18.8063C245.124 18.0176 245.658 17.5739 246.12 17.2289C248.501 15.5035 251.173 14.8873 254.064 15.3063C255.084 15.4542 256.785 15.7007 258.388 16.9331C259.214 17.5493 259.773 18.2394 260.04 18.5845L260.047 18.5945C260.203 18.8051 260.727 19.5137 261.157 20.5563C261.192 20.6436 261.226 20.7279 261.258 20.8068C261.311 20.9354 261.358 21.05 261.39 21.1411C261.334 21.1374 261.281 21.1318 261.23 21.1233L259.282 21.1264C259.062 20.7864 258.731 20.3386 258.266 19.8908C258.266 19.8908 257.951 19.5704 257.586 19.2993C256.104 18.1408 254.185 17.5739 251.999 17.6972C251.173 17.7465 249.472 17.8944 247.845 19.1268C246.925 19.814 246.367 20.5991 246.051 21.1411ZM232.88 17.2289C234.233 18.2094 234.985 19.5556 235.233 21.1463L232.889 21.1469C232.571 20.6056 232.015 19.8307 231.107 19.1514C229.479 17.919 227.779 17.7711 226.953 17.7218C224.766 17.5739 222.847 18.1655 221.365 19.3239C221.001 19.5951 220.685 19.9155 220.685 19.9155C220.234 20.3727 219.899 20.8065 219.68 21.1479L217.584 21.1479C217.632 21.0006 217.703 20.7895 217.818 20.5563C218.28 19.4965 218.79 18.7817 218.936 18.5845C219.203 18.2394 219.762 17.5493 220.588 16.9331C222.215 15.7007 223.916 15.4542 224.936 15.3063C227.827 14.8627 230.499 15.4789 232.88 17.2289ZM261.959 45.9437V66.7712C261.959 67.6585 261.254 68.3733 260.38 68.3733H225.058L225.082 50.0846C225.082 47.5951 227.609 45.5493 230.694 45.5493C233.779 45.5493 236.305 47.5705 236.305 50.0846V63.4684C236.305 63.912 236.67 64.2817 237.107 64.2817C237.544 64.2817 237.909 63.912 237.909 63.4684V50.0846C237.909 46.6832 234.678 43.9226 230.694 43.9226C226.71 43.9226 223.479 46.6832 223.479 50.0846L223.454 68.3733H223.43H218.62C217.746 68.3733 217.041 67.6585 217.041 66.7712V52.6479V42.9613V42.3205C219.3 42.1972 221.584 41.2853 223.479 39.7817C223.892 39.4367 224.28 39.0916 224.645 38.7219L224.645 38.7219C224.742 38.8698 224.839 39.0177 224.961 39.1409C226.54 41.162 229.018 42.3451 231.763 42.3451H232.054C232.734 42.3205 233.39 42.2465 234.022 42.0986C234.483 42.0001 234.945 41.8522 235.382 41.6796C236.063 41.4085 236.694 41.0634 237.301 40.6691C237.739 40.3733 238.152 40.0529 238.54 39.6832C238.577 39.6585 238.607 39.6277 238.638 39.5969C238.668 39.5661 238.698 39.5353 238.735 39.5106C239.002 39.2641 239.245 38.993 239.464 38.6972C239.706 38.993 239.998 39.2888 240.265 39.5599L240.265 39.5599C240.703 39.9789 241.164 40.3486 241.674 40.6937C242.282 41.0881 242.913 41.4332 243.593 41.6796C244.031 41.8522 244.492 42.0001 244.954 42.0986C245.585 42.2465 246.241 42.3205 246.922 42.3451H247.213C249.982 42.3451 252.46 41.1867 254.015 39.1409C254.097 39.0171 254.195 38.8932 254.282 38.7839L254.282 38.7837L254.331 38.7219C254.695 39.0916 255.084 39.4613 255.497 39.7817C257.416 41.3099 259.675 42.1972 261.935 42.3205V45.9437H261.959ZM263.562 40.1022C263.247 40.1515 262.906 40.1761 262.566 40.1761C262.372 40.1761 262.153 40.1761 261.959 40.1515C260.016 40.0036 258.121 39.1902 256.639 37.9578C256.031 37.4648 255.497 36.9226 255.06 36.331C254.307 35.3451 253.772 34.236 253.554 33.1022C253.772 34.2606 253.651 35.3451 253.286 36.331C253.068 36.9226 252.728 37.4648 252.315 37.9578C251.173 39.3134 249.399 40.1761 247.237 40.1761H246.946C246.266 40.1515 245.585 40.0529 244.954 39.8557C244.492 39.7078 244.031 39.5353 243.618 39.3381C242.913 38.993 242.257 38.5247 241.699 38.0071C241.686 38.0071 241.68 38.0009 241.674 37.9948C241.668 37.9886 241.662 37.9824 241.65 37.9824C241.14 37.4895 240.703 36.9472 240.338 36.3557L240.265 36.2078C239.731 35.2712 239.439 34.2113 239.439 33.1268C239.439 34.162 239.172 35.1479 238.71 36.0599C238.662 36.1585 238.613 36.2571 238.54 36.3557C238.2 36.9472 237.787 37.4895 237.277 37.9578V37.9824H237.253C236.694 38.5247 236.063 38.9684 235.358 39.3381C234.945 39.5599 234.483 39.7324 234.022 39.8803C233.39 40.0775 232.71 40.1761 232.03 40.2008H231.738C229.576 40.2008 227.779 39.3381 226.661 37.9824C226.248 37.4895 225.932 36.9472 225.689 36.3557C225.304 35.3771 225.205 34.2771 225.417 33.1521C225.196 34.301 224.664 35.3769 223.916 36.3557C223.454 36.9472 222.92 37.4895 222.337 37.9824C220.831 39.2148 218.96 40.0282 216.992 40.1761C216.798 40.2008 216.579 40.2008 216.385 40.2008C216.045 40.2008 215.705 40.1761 215.389 40.1268C211.818 39.6339 210.117 36.5529 211.429 33.1022L214.247 25.7571C214.806 24.2782 216.264 23.317 217.77 23.317H218.644H222.41H227.39H228.847H233.779H235.358H237.326H238.686H239.536H240.29H241.65H243.618H245.197H250.08H251.634H256.517H260.283H261.254C262.761 23.317 264.121 24.2782 264.68 25.7571L267.498 33.1022C268.834 36.5036 267.133 39.6092 263.562 40.1022ZM253.942 48.8521C253.942 48.4084 254.307 48.0387 254.744 48.0387C255.181 48.0387 255.546 48.4084 255.546 48.8521L255.521 57.6514C255.521 61.0528 252.29 63.8133 248.306 63.8133C244.322 63.8133 241.091 61.0528 241.091 57.6514V48.8521C241.091 48.4084 241.456 48.0387 241.893 48.0387C242.33 48.0387 242.695 48.4084 242.695 48.8521V57.6514C242.695 60.1654 245.221 62.1866 248.306 62.1866C251.391 62.1866 253.918 60.1408 253.918 57.6514L253.942 48.8521Z" />
</g>
<defs>
<clipPath id="clip0_12507_39343">
<rect width="61" height="70" fill="white" transform="translate(209)"/>
</clipPath>
</defs>
</svg>
