<svg width="277" height="209" viewBox="0 0 277 209" fill="none" xmlns="http://www.w3.org/2000/svg">
<g clip-path="url(#clip0_4098_60114)">
<path d="M253.107 186.312L253.523 176.914C257.858 174.586 262.692 173.355 267.607 173.331C260.843 178.89 261.688 189.605 257.102 197.08C255.654 199.401 253.705 201.364 251.399 202.824C249.094 204.284 246.491 205.205 243.783 205.516L238.122 209C237.346 204.648 237.517 200.178 238.624 195.898C239.732 191.619 241.749 187.631 244.537 184.211C246.12 182.308 247.936 180.612 249.94 179.165C251.296 182.758 253.107 186.312 253.107 186.312Z" fill="#F2F2F2"/>
<path d="M58.7667 102.768C58.3926 102.425 58.098 102.003 57.9035 101.534C57.709 101.064 57.6194 100.557 57.641 100.048C57.6625 99.5396 57.7947 99.0421 58.0283 98.5905C58.2619 98.1389 58.5911 97.7443 58.9929 97.4345L55.1147 85.6929L61.2919 87.3609L64.0276 98.2552C64.5008 98.968 64.6973 99.8305 64.58 100.679C64.4628 101.528 64.0398 102.304 63.3913 102.86C62.7429 103.417 61.9139 103.714 61.0615 103.697C60.2092 103.68 59.3926 103.35 58.7667 102.768V102.768Z" fill="#A0616A"/>
<path d="M69.9622 38.9739C70.9871 39.5644 77.0514 38.1011 78.2357 38.5174C77.5819 42.5267 81.1328 41.0222 77.2768 46.2875C73.4209 51.5528 65.6546 67.3397 63.8904 73.2399C62.1261 79.1402 63.8723 87.4553 63.6081 90.2516C63.4804 91.8718 63.4884 93.5 63.6319 95.1189C61.5486 95.0924 59.4952 95.5269 57.3793 95.2494C55.1229 88.8318 53.6057 79.6971 52.5755 74.6486C51.5453 69.6001 51.5076 71.7351 51.9801 69.2107C52.4526 66.6863 52.567 68.5208 52.0707 66.1058C51.5743 63.6908 53.5817 60.6565 55.4364 58.9263C56.2361 56.6145 57.2696 54.4588 58.0613 52.1711C63.8629 47.0841 64.2443 44.1455 69.9622 38.9739Z" fill="#7340B3"/>
<path d="M238.522 202.488H233.396L230.958 182.616H238.523L238.522 202.488Z" fill="#FFB6B6"/>
<path d="M239.829 207.482L223.302 207.482V207.272C223.302 205.557 223.979 203.912 225.186 202.7C226.392 201.487 228.028 200.806 229.734 200.806H229.735L232.754 198.504L238.387 200.806L239.829 200.806L239.829 207.482Z" fill="#2F2E41"/>
<path d="M214.709 202.488H209.583L207.145 182.616H214.709L214.709 202.488Z" fill="#FFB6B6"/>
<path d="M216.016 207.482L199.489 207.482V207.272C199.489 205.557 200.166 203.912 201.373 202.7C202.579 201.487 204.215 200.806 205.921 200.806H205.922L208.941 198.504L214.574 200.806L216.016 200.806L216.016 207.482Z" fill="#2F2E41"/>
<path d="M212.49 93.8475L245.83 94.6853C252.162 98.1421 252.258 105.624 250.183 114.507C250.183 114.507 250.884 119.787 249.483 121.195C248.082 122.603 247.382 122.603 248.082 125.067C248.783 127.53 245.082 131.555 245.532 132.006C245.981 132.458 247.032 134.922 247.032 134.922L243.53 154.985C243.53 154.985 241.078 189.832 240.378 190.536C239.678 191.24 238.977 190.536 239.678 192.296C240.378 194.056 241.078 193.352 240.378 194.056C239.758 194.728 239.173 195.433 238.627 196.168H230.16C230.16 196.168 229.522 192.648 229.522 192.296C229.522 191.944 228.822 189.832 228.822 189.48C228.822 189.128 229.441 188.506 229.441 188.506C229.655 187.79 229.799 187.056 229.872 186.312C229.872 185.608 231.973 158.505 231.973 158.505L227.771 123.307L217.615 157.801C217.615 157.801 217.615 188.072 216.915 188.776C216.215 189.48 216.215 189.128 216.565 190.536C216.915 191.944 218.316 191.592 217.265 192.648C216.215 193.704 215.865 191.944 216.215 193.704L216.565 195.464L206.059 195.615C206.059 195.615 204.658 192.648 205.359 191.592C206.059 190.536 206.017 190.824 205.163 189.096C204.308 187.368 203.958 187.016 204.308 186.664C204.658 186.312 204.658 184.44 204.658 184.44L206.409 150.762C206.409 150.762 206.759 115.211 206.759 114.155C206.786 113.612 206.686 113.069 206.469 112.571V111.138L207.81 106.059L212.49 93.8475Z" fill="#2F2E41"/>
<path d="M232.518 24.1675C238.239 24.1675 242.877 19.5059 242.877 13.7556C242.877 8.00521 238.239 3.34363 232.518 3.34363C226.797 3.34363 222.159 8.00521 222.159 13.7556C222.159 19.5059 226.797 24.1675 232.518 24.1675Z" fill="#FFB6B6"/>
<path d="M227.338 31.0491C225.107 32.3826 223.772 34.8328 223.005 37.3261C221.586 41.9421 220.732 46.7147 220.462 51.5383L219.653 65.9794L209.628 96.7286C218.316 104.118 250.973 98.4079 250.973 98.4079C250.973 98.4079 251.976 98.0721 250.973 97.0644C249.971 96.0568 248.995 96.9495 249.997 95.9419C251 94.9343 250.309 96.0568 249.975 95.0492C249.64 94.0416 249.975 94.7134 250.309 94.3775C250.643 94.0416 247.722 91.0188 247.722 91.0188L250.395 73.3685L253.737 37.7664C249.727 32.7284 241.662 29.7585 241.662 29.7585L239.579 25.9885L229.16 26.8263L227.338 31.0491Z" fill="#3F3D56"/>
<path d="M225.918 7.64506C226.318 7.64821 226.717 7.70082 227.105 7.80172C227.87 7.98657 228.647 8.11753 229.431 8.19361C231.829 8.42038 234.082 9.44833 235.831 11.1133C237.579 12.7783 238.722 14.9842 239.077 17.3788C239.679 16.8513 241.049 15.881 242.172 16.7827C242.189 16.7971 242.199 16.8044 242.238 16.7856C242.984 16.4301 244.307 12.0544 244.347 8.20158C244.369 6.15667 244.048 3.54541 242.403 2.71848L242.316 2.67492L242.293 2.58021C242.183 2.12022 240.955 1.33502 238.821 0.723882C234.941 -0.386731 229.273 -0.54729 226.017 2.63667C225.77 3.71006 224.854 4.00417 224.044 4.26454C223.148 4.55273 222.373 4.80144 222.251 5.90714C222.149 7.48064 222.156 9.05938 222.273 10.6318C222.577 9.66963 223.174 8.82745 223.979 8.22388C224.551 7.83653 225.228 7.63455 225.918 7.64506Z" fill="#2F2E41"/>
<path d="M206.637 65.1755L223.558 54.2832L215.035 42.8958L206.62 53.3008L180.398 54.9172C179.709 54.232 178.836 53.7633 177.885 53.5682C176.935 53.3731 175.949 53.4601 175.047 53.8186C174.146 54.177 173.367 54.7915 172.807 55.587C172.246 56.3825 171.928 57.3247 171.892 58.2987C171.855 59.2728 172.101 60.2365 172.599 61.0725C173.098 61.9084 173.828 62.5805 174.7 63.0067C175.572 63.4329 176.549 63.5948 177.511 63.4727C178.473 63.3506 179.379 62.9498 180.119 62.3192L206.637 65.1755Z" fill="#FFB6B6"/>
<path d="M239.263 39.0796C240.245 45.0535 221.699 56.4613 221.699 56.4613C221.699 55.0591 210.629 65.6446 210.13 64.4817C208.71 61.1766 207.711 53.3483 205.727 52.0953C204.592 51.3787 212.561 44.6472 212.561 44.6472C212.561 44.6472 216.733 40.4233 222.207 35.0954C223.727 33.5603 225.608 32.4367 227.676 31.829C229.745 31.2214 231.932 31.1496 234.035 31.6203C234.035 31.6203 238.281 33.1056 239.263 39.0796Z" fill="#3F3D56"/>
<path d="M220.408 107.671C220.416 114.064 219.35 120.412 217.258 126.449C217.162 126.73 217.062 127.006 216.962 127.287C212.678 138.981 204.709 148.948 194.27 155.67C193.557 156.131 192.836 156.571 192.103 156.998C183.762 161.858 174.32 164.486 164.681 164.63C164.364 164.634 164.047 164.639 163.731 164.639C163.322 164.639 162.918 164.634 162.514 164.626C152.861 164.433 143.419 161.753 135.092 156.843C134.358 156.412 133.636 155.964 132.925 155.499C121.334 147.947 112.883 136.404 109.156 123.035C105.43 109.667 106.684 95.3909 112.683 82.8854C112.816 82.6047 112.954 82.3283 113.096 82.0476C117.821 72.6229 125.056 64.7019 133.997 59.1675C142.937 53.6331 153.231 50.7026 163.731 50.7026C174.23 50.7026 184.524 53.6331 193.464 59.1675C202.405 64.7019 209.641 72.6229 214.365 82.0476C214.507 82.3283 214.645 82.6047 214.778 82.8854C218.496 90.6125 220.421 99.0871 220.408 107.671Z" fill="#F2F2F2"/>
<path d="M202.872 126.449V127.287H207.948V126.449H202.872ZM192.72 126.449V127.287H197.796V126.449H192.72ZM182.568 126.449V127.287H187.644V126.449H182.568ZM172.416 126.449V127.287H177.492V126.449H172.416ZM162.264 126.449V127.287H167.34V126.449H162.264ZM152.112 126.449V127.287H157.188V126.449H152.112ZM141.96 126.449V127.287H147.036V126.449H141.96ZM131.812 126.449V127.287H136.884V126.449H131.812ZM121.66 126.449V127.287H126.736V126.449H121.66ZM111.508 126.449V127.287H116.584V126.449H111.508ZM217.258 126.449H213.024V127.287H216.962L217.258 126.449Z" fill="#E6E6E6"/>
<path d="M213.023 120.585V121.423H218.099V120.585H213.023ZM202.872 120.585V121.423H207.948V120.585H202.872ZM192.72 120.585V121.423H197.796V120.585H192.72ZM182.568 120.585V121.423H187.644V120.585H182.568ZM172.416 120.585V121.423H177.492V120.585H172.416ZM162.264 120.585V121.423H167.34V120.585H162.264ZM152.112 120.585V121.423H157.188V120.585H152.112ZM141.96 120.585V121.423H147.036V120.585H141.96ZM131.812 120.585V121.423H136.884V120.585H131.812ZM121.66 120.585V121.423H126.736V120.585H121.66ZM111.508 120.585V121.423H116.584V120.585H111.508Z" fill="#E6E6E6"/>
<path d="M213.023 108.437V109.275H218.099V108.437H213.023ZM202.872 108.437V109.275H207.948V108.437H202.872ZM192.72 108.437V109.275H197.796V108.437H192.72ZM182.568 108.437V109.275H187.644V108.437H182.568ZM172.416 108.437V109.275H177.492V108.437H172.416ZM162.264 108.437V109.275H167.34V108.437H162.264ZM152.112 108.437V109.275H157.188V108.437H152.112ZM141.96 108.437V109.275H147.036V108.437H141.96ZM131.812 108.437V109.275H136.884V108.437H131.812ZM121.66 108.437V109.275H126.736V108.437H121.66ZM111.508 108.437V109.275H116.584V108.437H111.508Z" fill="#E6E6E6"/>
<path d="M213.023 100.06V100.897H218.099V100.06H213.023ZM202.872 100.06V100.897H207.948V100.06H202.872ZM192.72 100.06V100.897H197.796V100.06H192.72ZM182.568 100.06V100.897H187.644V100.06H182.568ZM172.416 100.06V100.897H177.492V100.06H172.416ZM162.264 100.06V100.897H167.34V100.06H162.264ZM152.112 100.06V100.897H157.188V100.06H152.112ZM141.96 100.06V100.897H147.036V100.06H141.96ZM131.812 100.06V100.897H136.884V100.06H131.812ZM121.66 100.06V100.897H126.736V100.06H121.66ZM111.508 100.06V100.897H116.584V100.06H111.508Z" fill="#E6E6E6"/>
<path d="M214.365 82.0476H213.024V82.8854H214.778C214.645 82.6047 214.507 82.3283 214.365 82.0476ZM202.872 82.0476V82.8854H207.948V82.0476H202.872ZM192.72 82.0476V82.8854H197.796V82.0476H192.72ZM182.568 82.0476V82.8854H187.644V82.0476H182.568ZM172.416 82.0476V82.8854H177.492V82.0476H172.416ZM162.264 82.0476V82.8854H167.34V82.0476H162.264ZM152.112 82.0476V82.8854H157.188V82.0476H152.112ZM141.96 82.0476V82.8854H147.036V82.0476H141.96ZM131.812 82.0476V82.8854H136.884V82.0476H131.812ZM121.66 82.0476V82.8854H126.736V82.0476H121.66ZM113.096 82.0476C112.954 82.3283 112.816 82.6047 112.683 82.8854H116.584V82.0476H113.096Z" fill="#E6E6E6"/>
<path d="M194.27 84.8708V155.67C193.557 156.131 192.836 156.571 192.103 156.998V84.8708H194.27Z" fill="#3F3D56"/>
<path d="M135.092 84.8708V156.843C134.358 156.412 133.636 155.964 132.925 155.499V84.8708H135.092Z" fill="#3F3D56"/>
<path d="M28.9029 181.234L28.0763 169.678C22.6613 166.957 16.6674 165.606 10.615 165.742C19.1298 172.357 18.4478 185.579 24.3448 194.628C26.2055 197.436 28.6711 199.787 31.5588 201.507C34.4465 203.227 37.6822 204.272 41.0263 204.565L48.1127 208.662C48.9233 203.277 48.5628 197.779 47.0559 192.548C45.5491 187.316 42.9317 182.475 39.3842 178.358C37.3713 176.068 35.0795 174.042 32.5629 172.328C31.014 176.798 28.9029 181.234 28.9029 181.234Z" fill="#F2F2F2"/>
<path d="M192.903 90.4965C197.276 90.4965 200.821 86.9333 200.821 82.5378C200.821 78.1422 197.276 74.579 192.903 74.579C188.53 74.579 184.985 78.1422 184.985 82.5378C184.985 86.9333 188.53 90.4965 192.903 90.4965Z" fill="#7340B3"/>
<path d="M196.968 79.2208C196.848 79.1066 196.69 79.0428 196.525 79.0428C196.361 79.0428 196.203 79.1066 196.083 79.2208C194.403 80.5676 192.894 82.1169 191.59 83.8339C191.27 83.2112 190.95 82.5886 190.63 81.966C190.26 81.2473 189.181 81.8822 189.55 82.6002C190.018 83.5109 190.487 84.4216 190.955 85.3323C191.011 85.4253 191.091 85.5021 191.185 85.5554C191.28 85.6087 191.386 85.6367 191.495 85.6367C191.603 85.6367 191.71 85.6087 191.804 85.5554C191.899 85.5021 191.978 85.4253 192.035 85.3323C193.424 83.3651 195.085 81.6065 196.968 80.1094C197.084 79.991 197.149 79.8314 197.149 79.6651C197.149 79.4987 197.084 79.3391 196.968 79.2208Z" fill="white"/>
<path d="M134.141 92.1721C138.514 92.1721 142.06 88.6088 142.06 84.2133C142.06 79.8178 138.514 76.2545 134.141 76.2545C129.768 76.2545 126.223 79.8178 126.223 84.2133C126.223 88.6088 129.768 92.1721 134.141 92.1721Z" fill="#7340B3"/>
<path d="M138.206 80.8963C138.087 80.7821 137.929 80.7184 137.764 80.7184C137.599 80.7184 137.441 80.7821 137.322 80.8963C135.642 82.2432 134.133 83.7925 132.829 85.5094C132.509 84.8868 132.188 84.2641 131.868 83.6415C131.499 82.9228 130.42 83.5577 130.789 84.2757C131.257 85.1865 131.725 86.0971 132.194 87.0078C132.25 87.1008 132.329 87.1776 132.424 87.2309C132.518 87.2842 132.625 87.3122 132.733 87.3122C132.842 87.3122 132.948 87.2842 133.043 87.2309C133.137 87.1776 133.217 87.1008 133.273 87.0078C134.663 85.0406 136.324 83.282 138.206 81.7849C138.322 81.6666 138.388 81.5069 138.388 81.3406C138.388 81.1743 138.322 81.0146 138.206 80.8963Z" fill="white"/>
<path d="M247.696 78.5534L252.909 59.048L238.979 56.3976L239.728 69.786L221.425 88.7281C220.456 88.6883 219.497 88.9327 218.664 89.4316C217.831 89.9304 217.16 90.6621 216.733 91.5375C216.307 92.4129 216.143 93.3941 216.261 94.3615C216.38 95.3289 216.776 96.2407 217.402 96.9857C218.027 97.7307 218.854 98.2767 219.783 98.5572C220.712 98.8377 221.702 98.8405 222.632 98.5653C223.562 98.2901 224.393 97.7488 225.022 97.0074C225.652 96.2659 226.053 95.3564 226.177 94.3897L247.696 78.5534Z" fill="#FFB6B6"/>
<path d="M254.334 37.1783C259.062 40.9302 252.993 61.9164 252.993 61.9164C252.054 60.88 250.962 76.1978 249.813 75.6763C246.549 74.1939 240.567 69.0822 238.26 69.4988C236.941 69.7371 238.323 59.3668 238.323 59.3668C238.323 59.3668 238.577 53.4207 239.055 45.7768C239.15 43.6132 239.788 41.509 240.91 39.6601C242.032 37.8111 243.601 36.2775 245.472 35.2021C245.472 35.2021 249.606 33.4265 254.334 37.1783Z" fill="#3F3D56"/>
<path d="M91.0216 80.9705L96.7523 106.676L60.0293 104.38L70.0154 79.1345L91.0216 80.9705Z" fill="#A0616A"/>
<path d="M84.9066 199.61L89.0316 199.609L90.994 183.617H84.9058L84.9066 199.61Z" fill="#A0616A"/>
<path d="M83.5095 197.564L90.0305 197.173V199.981L96.2302 204.285C96.5364 204.497 96.767 204.803 96.8884 205.156C97.0097 205.51 97.0154 205.893 96.9047 206.25C96.7939 206.607 96.5725 206.92 96.2728 207.141C95.973 207.363 95.6106 207.482 95.2385 207.482H87.475L86.1369 204.705L85.6144 207.482H82.6873L83.5095 197.564Z" fill="#2F2E41"/>
<path d="M45.9182 197.547L49.9498 198.426L55.2409 183.215L49.291 181.917L45.9182 197.547Z" fill="#A0616A"/>
<path d="M44.9846 195.25L51.4399 196.257L50.8476 199.002L55.9986 204.529C56.253 204.802 56.414 205.149 56.458 205.521C56.502 205.892 56.4268 206.268 56.2432 206.593C56.0597 206.919 55.7775 207.177 55.4378 207.329C55.0981 207.482 54.7187 207.522 54.355 207.442L46.7681 205.788L46.0462 202.788L44.9497 205.392L42.0891 204.768L44.9846 195.25Z" fill="#2F2E41"/>
<path d="M97.6898 128.171C94.7948 144.163 94.071 151.068 94.071 151.068C94.071 151.068 96.2423 153.612 94.7948 155.067C93.3472 156.522 94.7948 159.428 94.7948 159.428L91.5399 194.683L88.9197 194.257L82.608 193.237L80.3316 192.867L81.7792 159.793C81.7792 159.793 80.3316 156.883 81.0554 156.156C81.7792 155.428 80.3316 151.068 80.3316 151.068L78.5242 116.539L67.312 154.339C67.312 154.339 68.3996 155.794 67.312 156.883C66.2283 157.973 64.0611 163.427 64.0611 163.427L57.3936 186.876L56.8275 188.868L53.3502 188.213L49.5656 187.498L48.8701 187.368L47.6329 187.132L46.8364 186.982L46.5654 186.933L45.2554 186.685L45.6516 184.917L45.8578 183.987L51.4984 158.806L51.6277 158.225L51.7652 157.611C51.7652 157.611 51.0415 155.794 52.1251 154.701C52.4421 154.368 52.6736 153.962 52.7997 153.519C52.9258 153.076 52.9427 152.608 52.8489 152.157C52.8134 152.119 52.7809 152.078 52.7518 152.035C52.6238 151.858 52.5355 151.656 52.493 151.442C52.396 150.986 52.4809 150.348 53.2128 149.613C53.4189 149.393 53.5918 149.143 53.7263 148.873C54.8261 146.78 55.38 142.346 55.38 142.346C55.38 142.346 56.3585 107.228 59.5608 101.864C59.7307 101.583 63.1302 96.2 63.3082 96.0902C66.9229 93.9119 95.0853 96.9207 95.0853 96.9207C95.0853 96.9207 96.7911 101.527 96.8679 102.006C97.2844 104.701 100.144 114.605 97.6898 128.171Z" fill="#2F2E41"/>
<path d="M89.1327 43.5817C89.1327 43.5817 89.742 40.4023 83.8865 34.5167C80.7865 33.4781 75.4152 34.0835 73.5531 34.5167C64.942 45.9416 66.4838 43.9258 64.2423 50.3092C63.6611 51.9645 63.3705 53.5549 63.6288 54.8532C64.6621 60.0463 66.3397 86.7039 65.9953 88.0887C65.6508 89.4736 63.2397 91.2046 65.6508 91.2046C68.0619 91.2046 99.1553 90.6575 98.4664 89.6189C97.7775 88.5803 89.1327 43.5817 89.1327 43.5817Z" fill="#7340B3"/>
<path d="M126.061 85.8239C125.588 86.0077 125.082 86.0852 124.577 86.0509C124.071 86.0166 123.58 85.8714 123.136 85.6255C122.693 85.3796 122.309 85.039 122.011 84.6277C121.712 84.2164 121.508 83.7443 121.41 83.2448L109.224 81.505L113.461 76.689L124.384 79.0795C125.23 78.9712 126.086 79.1785 126.789 79.662C127.493 80.1456 127.996 80.8719 128.203 81.7032C128.409 82.5346 128.306 83.4132 127.911 84.1727C127.516 84.9322 126.858 85.5197 126.061 85.8239L126.061 85.8239Z" fill="#A0616A"/>
<path d="M74.5032 41.5351C75.4858 40.8758 76.6018 40.5662 77.5001 39.6858C80.7803 42.0599 81.0217 38.1944 83.9944 44.0096C86.9671 49.8248 97.5703 63.8453 102.04 68.0611C106.51 72.2768 114.695 74.409 117.068 75.8923C118.454 76.7288 119.908 77.4468 121.414 78.0387C120.463 79.9017 119.935 81.9432 118.745 83.7237C112.024 82.8958 103.211 80.1925 98.2553 78.8709C93.2995 77.5494 95.1844 78.5342 93.1463 76.9846C91.1081 75.435 92.7931 76.1491 90.4208 75.5201C88.0485 74.8911 86.2397 71.7332 85.5247 69.2935C83.8216 67.5441 82.3617 65.654 80.6765 63.9225C78.7293 56.4358 76.5631 48.9842 74.5032 41.5351Z" fill="#7340B3"/>
<path d="M82.1981 30.0856C87.7065 30.0856 92.172 25.5972 92.172 20.0605C92.172 14.5239 87.7065 10.0355 82.1981 10.0355C76.6896 10.0355 72.2241 14.5239 72.2241 20.0605C72.2241 25.5972 76.6896 30.0856 82.1981 30.0856Z" fill="#A0616A"/>
<path d="M88.862 38.3857C88.3892 37.7071 84.8546 30.9785 83.804 28.4339C83.6959 28.985 83.6277 29.5431 83.5999 30.1041L83.5894 30.3131L83.383 30.34C83.0724 30.3798 75.7367 31.2748 71.919 26.9237C69.6572 24.3464 69.1442 20.4806 70.3924 15.4314C70.1654 15.3866 69.9478 15.3024 69.7496 15.1825C69.4195 14.9529 69.1432 14.6536 68.9399 14.3056C68.7367 13.9575 68.6115 13.5691 68.5729 13.1675L68.3616 13.2244C61.5698 9.90257 67.421 0.184966 73.6247 5.01636C74.1688 4.89415 74.736 4.92692 75.2627 5.11097C75.7706 5.31866 76.2131 5.66061 76.5434 6.10057C76.8736 6.54053 77.0793 7.06211 77.1385 7.61002C80.3438 5.91545 84.5859 6.1912 86.7799 7.46261C87.6985 7.99504 88.226 8.66558 88.3196 9.41361C90.911 9.55906 93.6982 12.0963 93.6982 15.691V15.9413H93.4492C92.4066 15.9636 91.3897 16.2705 90.5074 16.8292C89.6251 17.3878 88.9105 18.1771 88.4403 19.1126C87.803 20.2699 87.4876 21.5783 87.5272 22.9004C87.5669 24.2224 87.96 25.5094 88.6655 26.626C89.4333 27.8103 89.9575 29.1371 90.2073 30.5282C90.4571 31.9193 90.4274 33.3466 90.1199 34.726L89.184 38.8478L88.862 38.3857Z" fill="#2F2E41"/>
<path d="M117.802 207.565C117.802 207.631 117.79 207.696 117.765 207.756C117.74 207.817 117.703 207.872 117.657 207.918C117.611 207.964 117.557 208.001 117.496 208.026C117.436 208.051 117.371 208.064 117.306 208.064H0.495931C0.364402 208.064 0.238259 208.011 0.145254 207.918C0.052249 207.824 0 207.697 0 207.565C0 207.433 0.052249 207.306 0.145254 207.213C0.238259 207.119 0.364402 207.067 0.495931 207.067H117.306C117.371 207.066 117.436 207.079 117.496 207.104C117.557 207.129 117.611 207.166 117.657 207.212C117.703 207.259 117.74 207.314 117.765 207.374C117.79 207.435 117.802 207.5 117.802 207.565Z" fill="#CCCCCC"/>
<path d="M277 207.565C277 207.631 276.987 207.696 276.963 207.756C276.938 207.817 276.901 207.872 276.855 207.918C276.809 207.964 276.754 208.001 276.694 208.026C276.634 208.051 276.569 208.064 276.504 208.064H159.694C159.562 208.064 159.436 208.011 159.343 207.918C159.25 207.824 159.198 207.697 159.198 207.565C159.198 207.433 159.25 207.306 159.343 207.213C159.436 207.119 159.562 207.067 159.694 207.067H276.504C276.569 207.066 276.634 207.079 276.694 207.104C276.754 207.129 276.809 207.166 276.855 207.212C276.901 207.259 276.938 207.314 276.963 207.374C276.987 207.435 277 207.5 277 207.565Z" fill="#CCCCCC"/>
<path d="M133.895 171.641C136.333 171.641 138.309 169.655 138.309 167.205C138.309 164.755 136.333 162.769 133.895 162.769C131.458 162.769 129.482 164.755 129.482 167.205C129.482 169.655 131.458 171.641 133.895 171.641Z" fill="#E6E6E6"/>
<path d="M163.484 176.249C165.922 176.249 167.898 174.262 167.898 171.812C167.898 169.362 165.922 167.376 163.484 167.376C161.047 167.376 159.071 169.362 159.071 171.812C159.071 174.262 161.047 176.249 163.484 176.249Z" fill="#E6E6E6"/>
<path d="M193.074 170.803C195.511 170.803 197.487 168.817 197.487 166.367C197.487 163.917 195.511 161.931 193.074 161.931C190.636 161.931 188.66 163.917 188.66 166.367C188.66 168.817 190.636 170.803 193.074 170.803Z" fill="#E6E6E6"/>
</g>
<path fill-rule="evenodd" clip-rule="evenodd" d="M174.414 132.662H174.542V132.38C174.574 132.385 174.597 132.385 174.611 132.385C174.62 132.385 174.648 132.385 174.671 132.38L174.84 132.662H174.992L174.795 132.353C174.881 132.316 174.936 132.223 174.936 132.122C174.936 131.993 174.836 131.882 174.62 131.882C174.542 131.882 174.478 131.887 174.414 131.896V132.662ZM174.542 132.002C174.565 131.997 174.602 131.997 174.634 131.997C174.74 131.997 174.804 132.048 174.804 132.127C174.804 132.223 174.74 132.279 174.625 132.279C174.602 132.279 174.574 132.279 174.542 132.274V132.002ZM174.657 132.962C174.299 132.962 174.01 132.648 174.01 132.284C174.01 131.905 174.299 131.6 174.657 131.6C175.019 131.6 175.309 131.905 175.309 132.284C175.309 132.648 175.019 132.962 174.657 132.962ZM174.657 133.072C175.088 133.072 175.432 132.712 175.432 132.284C175.432 131.845 175.088 131.485 174.657 131.485C174.226 131.485 173.886 131.841 173.886 132.284C173.886 132.717 174.23 133.072 174.657 133.072Z" fill="#7340B3"/>
<path fill-rule="evenodd" clip-rule="evenodd" d="M177.735 118.108C177.338 117.203 176.807 116.393 176.095 115.716C172.927 112.704 167.827 113.985 166.311 118.172C165.982 119.081 165.81 120.018 165.811 120.991C165.817 125.22 165.814 129.448 165.814 133.676C165.814 134.395 165.814 134.395 165.041 134.351C165.033 134.213 165.018 134.068 165.018 133.923C165.016 129.146 165.009 124.369 165.018 119.591C165.025 116.42 166.73 113.858 169.483 112.855C169.814 112.735 170.161 112.649 170.508 112.58C170.851 112.51 171.202 112.482 171.552 112.436C171.123 110.457 167.544 108.158 164.638 108.048C161.24 107.92 158.345 110.113 157.229 112.435C157.56 112.477 157.882 112.5 158.198 112.559C161.119 113.101 163.261 115.338 163.68 118.298C163.755 118.826 163.8 119.363 163.801 119.897C163.81 124.564 163.803 129.232 163.812 133.899C163.813 134.267 163.728 134.421 163.333 134.376C163.041 134.342 162.982 134.215 162.983 133.951C162.993 132.468 162.988 130.986 162.988 129.503C162.988 126.565 163.014 123.627 162.978 120.689C162.956 118.935 162.414 117.331 161.222 116.019C158.688 113.231 153.609 113.148 151.329 117.607C151.239 117.785 151.157 117.968 151.031 118.233C152.118 111.765 157.998 106.885 164.548 107.002C171.597 107.128 176.705 112.266 177.735 118.108Z" fill="#7340B3"/>
<path fill-rule="evenodd" clip-rule="evenodd" d="M169.059 133.558C169.044 133.424 169.024 133.331 169.024 133.237C169.027 130.739 169.01 128.241 169.046 125.743C169.063 124.519 169.391 123.369 170.316 122.499C171.505 121.382 172.922 121.267 174.358 121.83C175.785 122.389 176.51 123.566 176.612 125.085C176.719 126.668 176.039 127.988 175.09 129.188C173.581 131.095 171.699 132.507 169.459 133.433C169.337 133.484 169.207 133.512 169.059 133.558Z" fill="#7340B3"/>
<path fill-rule="evenodd" clip-rule="evenodd" d="M159.748 133.656C158.866 133.198 158.032 132.827 157.262 132.352C155.494 131.262 154.011 129.856 152.954 128.045C152.371 127.045 152.043 125.957 152.225 124.777C152.51 122.935 153.885 121.637 155.62 121.551C157.667 121.448 159.094 122.468 159.574 124.424C159.704 124.951 159.771 125.507 159.776 126.05C159.798 128.41 159.786 130.771 159.784 133.131C159.784 133.262 159.767 133.393 159.748 133.656Z" fill="#7340B3"/>
<path fill-rule="evenodd" clip-rule="evenodd" d="M161.77 134.086C161.091 134.121 160.998 134.041 160.998 133.43C160.997 130.053 160.997 126.676 160.997 123.299C160.997 121.285 159.999 119.695 158.314 119.026C156.346 118.245 154.172 118.679 152.825 120.102C151.815 121.169 151.464 122.477 151.393 123.898C151.386 124.034 151.376 124.17 151.283 124.322C151.212 123.982 151.119 123.643 151.071 123.299C150.881 121.927 151.055 120.621 151.802 119.423C152.319 118.594 153.011 117.97 153.93 117.637C155.904 116.922 157.844 116.989 159.705 117.999C161.073 118.742 161.773 119.953 161.785 121.494C161.815 125.612 161.796 129.731 161.795 133.849C161.795 133.929 161.778 134.009 161.77 134.086Z" fill="#7340B3"/>
<path fill-rule="evenodd" clip-rule="evenodd" d="M167.001 134.103V133.593C167.001 129.791 167.042 125.989 166.989 122.188C166.945 119.106 168.656 117.783 171.066 117.295C172.293 117.046 173.515 117.142 174.695 117.565C176.725 118.294 177.946 120.292 177.799 122.648C177.762 123.227 177.64 123.801 177.509 124.359C177.395 123.645 177.345 122.912 177.153 122.218C176.14 118.546 172.165 117.814 169.66 119.484C168.357 120.354 167.817 121.688 167.812 123.234C167.801 126.611 167.809 129.987 167.808 133.363C167.808 134.058 167.79 134.076 167.001 134.103Z" fill="#7340B3"/>
<defs>
<clipPath id="clip0_4098_60114">
<rect width="277" height="209" fill="white"/>
</clipPath>
</defs>
</svg>
