<svg width="24" height="24" viewBox="0 0 24 24" xmlns="http://www.w3.org/2000/svg">
<circle cx="12" cy="12" r="9"/>
<path d="M11.939 22.4578C10.5234 22.4578 9.15229 22.1789 7.85854 21.6352C6.61167 21.1078 5.48901 20.3508 4.52808 19.3875C3.56714 18.4266 2.81011 17.3039 2.28042 16.057C1.73433 14.7633 1.45776 13.3922 1.45776 11.9766C1.45776 10.5609 1.73433 9.18984 2.28042 7.89843C2.80776 6.65156 3.56479 5.5289 4.52808 4.56796C5.48901 3.60703 6.61167 2.84999 7.85854 2.32031C9.15229 1.77421 10.5234 1.49765 11.939 1.49765C13.3546 1.49765 14.7257 1.77421 16.0195 2.32031C17.2664 2.84765 18.389 3.60468 19.3499 4.56796C20.3109 5.5289 21.0679 6.65156 21.5976 7.89843C22.1437 9.19218 22.4203 10.5633 22.4203 11.9789C22.4203 13.3945 22.1414 14.7656 21.5976 16.0594C21.0703 17.3086 20.3132 18.4289 19.3499 19.3898C18.389 20.3508 17.2664 21.1078 16.0195 21.6375C14.7257 22.1812 13.3546 22.4578 11.939 22.4578ZM11.939 3.0539C7.01948 3.0539 3.01636 7.05703 3.01636 11.9766C3.01636 16.8961 7.01948 20.8992 11.939 20.8992C16.8585 20.8992 20.8617 16.8961 20.8617 11.9766C20.8617 7.05703 16.8585 3.0539 11.939 3.0539Z" />
<path d="M6.69604 9.61173C6.69604 9.9592 6.83408 10.2924 7.07978 10.5381C7.32548 10.7839 7.65873 10.9219 8.0062 10.9219C8.35368 10.9219 8.68692 10.7839 8.93262 10.5381C9.17832 10.2924 9.31636 9.9592 9.31636 9.61173C9.31636 9.26425 9.17832 8.93101 8.93262 8.68531C8.68692 8.43961 8.35368 8.30157 8.0062 8.30157C7.65873 8.30157 7.32548 8.43961 7.07978 8.68531C6.83408 8.93101 6.69604 9.26425 6.69604 9.61173Z" fill="white"/>
<path d="M14.5618 9.58594C14.5618 9.75799 14.5957 9.92836 14.6615 10.0873C14.7273 10.2463 14.8238 10.3907 14.9455 10.5124C15.0672 10.634 15.2116 10.7305 15.3705 10.7964C15.5295 10.8622 15.6999 10.8961 15.8719 10.8961C16.044 10.8961 16.2143 10.8622 16.3733 10.7964C16.5323 10.7305 16.6767 10.634 16.7983 10.5124C16.92 10.3907 17.0165 10.2463 17.0823 10.0873C17.1482 9.92836 17.1821 9.75799 17.1821 9.58594C17.1821 9.41389 17.1482 9.24352 17.0823 9.08457C17.0165 8.92561 16.92 8.78118 16.7983 8.65952C16.6767 8.53786 16.5323 8.44136 16.3733 8.37552C16.2143 8.30968 16.044 8.27579 15.8719 8.27579C15.6999 8.27579 15.5295 8.30968 15.3705 8.37552C15.2116 8.44136 15.0672 8.53786 14.9455 8.65952C14.8238 8.78118 14.7273 8.92561 14.6615 9.08457C14.5957 9.24352 14.5618 9.41389 14.5618 9.58594Z" fill="white"/>
<path d="M12.0774 17.182C10.0149 17.182 8.47266 15.5484 8.40704 15.4758C8.14219 15.1922 8.1586 14.7469 8.44454 14.482C8.72813 14.2172 9.17344 14.2336 9.43594 14.5172C9.45704 14.5383 10.6406 15.7758 12.0774 15.7758H12.1313C12.9422 15.757 13.7109 15.3305 14.4211 14.5055C14.6742 14.2102 15.1195 14.1773 15.4125 14.4305C15.7078 14.6836 15.7406 15.1289 15.4875 15.4219C14.5031 16.5656 13.3805 17.1562 12.15 17.1797C12.1266 17.182 12.1008 17.182 12.0774 17.182Z" fill="white"/>
</svg>
