<svg width="16" height="16" viewBox="0 0 16 16" fill="none" xmlns="http://www.w3.org/2000/svg">
<g clip-path="url(#clip0_3269_24218)">
<path d="M15.7059 8.14628C15.6272 8.00195 15.5803 7.83985 15.4697 7.71328C15.2931 7.52232 15.0782 7.41573 14.825 7.39353C14.7718 7.38908 14.7164 7.3802 14.6632 7.37132C14.5973 7.36022 14.559 7.32691 14.559 7.24697C14.5611 7.01826 14.5526 6.78954 14.5632 6.56083C14.5781 6.28327 14.4845 6.05677 14.3079 5.85693C14.2547 5.7681 14.176 5.70815 14.0909 5.65486C14.0611 5.65264 14.0462 5.62821 14.0292 5.60601C13.976 5.53273 13.8908 5.51052 13.8206 5.46611C13.6866 5.40394 13.5461 5.37729 13.4014 5.37285C13.3014 5.37063 13.2014 5.36619 13.1014 5.37285C12.9844 5.37951 12.9163 5.34621 12.9376 5.20853C12.9418 5.17745 12.9376 5.14636 12.9376 5.11527C12.9355 5.04422 12.8993 5.01091 12.8333 5.01313C12.5546 5.02645 12.2758 4.98204 11.9971 5.00869C11.8205 5.02423 11.8141 5.03089 11.8162 5.21297C11.8183 5.33288 11.7588 5.36841 11.6609 5.37285C11.546 5.37507 11.4311 5.37951 11.3162 5.37285C11.1928 5.36397 11.1417 5.42392 11.1417 5.54605C11.1396 5.8325 11.1396 6.11895 11.1417 6.40539C11.1417 6.52752 11.1949 6.57859 11.3098 6.54751C11.4438 6.56527 11.5779 6.55195 11.712 6.54751C11.7822 6.54529 11.8098 6.56971 11.8056 6.64743C11.7928 6.83395 11.7971 7.0227 11.8013 7.21144C11.8056 7.33801 11.763 7.38686 11.6375 7.38242C11.3928 7.37354 11.1481 7.3802 10.9034 7.3802C10.8034 7.3802 10.7289 7.41573 10.7374 7.52898C10.7587 7.82653 10.7459 8.12186 10.7459 8.4194C10.7459 8.53265 10.7842 8.5593 10.8842 8.55708C11.1481 8.55042 11.4141 8.55486 11.6779 8.55486C11.78 8.55486 11.8311 8.58372 11.829 8.70807C11.8226 9.42308 11.8332 10.1381 11.8205 10.8509C11.8183 10.9419 11.8375 10.9863 11.9332 10.9841C12.2035 10.9797 12.4716 10.9797 12.7418 10.9952C12.9333 11.0063 12.9355 10.9974 12.9355 10.7976C12.9355 10.0981 12.9376 9.39865 12.9333 8.70141C12.9333 8.58594 12.961 8.55042 13.0738 8.55264C13.478 8.5593 13.8845 8.55486 14.2888 8.55486C14.3739 8.55486 14.459 8.55708 14.5122 8.6459C14.5632 8.7325 14.5973 8.82576 14.5973 8.92346C14.5973 9.23434 14.6101 9.54521 14.5888 9.85608C14.5803 9.96489 14.5462 10.0004 14.4441 9.9982C14.176 9.99153 13.9079 9.9982 13.6398 9.99375C13.5802 10.0049 13.5781 10.0559 13.5781 10.1026C13.5844 10.298 13.7994 10.7954 14.0632 10.8487C14.1249 10.9264 14.2207 10.9197 14.3015 10.9486C14.3526 11.0019 14.4228 10.9863 14.4824 10.9885C14.6696 10.9974 14.8611 11.0241 15.0441 10.9441C15.4335 10.8908 15.7272 10.4623 15.7272 10.1048C15.7272 9.54299 15.6952 8.9812 15.7484 8.4194C15.7655 8.32392 15.7506 8.22844 15.7059 8.14628ZM13.378 7.40685H13.3483C12.9163 7.42461 12.9163 7.42461 12.9163 6.9583C12.9163 6.92722 12.9142 6.89613 12.9163 6.86504C12.9269 6.75846 12.8652 6.60746 12.944 6.55639C13.0461 6.48755 13.195 6.52974 13.3227 6.53863C13.4078 6.54529 13.4525 6.61856 13.4546 6.70294C13.461 6.91167 13.4568 7.11818 13.4589 7.32691C13.4589 7.38686 13.4334 7.41129 13.378 7.40685ZM7.1733 10.7976C7.32864 10.5134 7.47333 10.2225 7.59036 9.92048C7.63079 9.86052 7.69037 9.86274 7.74994 9.86274C8.00954 9.86496 8.26913 9.86052 8.52873 9.86496C8.62023 9.86718 8.66278 9.8472 8.66065 9.73617C8.6564 8.71917 8.6564 7.70218 8.66065 6.68518C8.66065 6.57859 8.62448 6.54973 8.53086 6.55417C8.38191 6.56083 8.23083 6.55195 8.08189 6.55639C7.99464 6.56083 7.95634 6.53418 7.95847 6.43426C7.96273 6.12561 7.96273 5.81918 7.95847 5.51052C7.95634 5.4106 7.99464 5.3884 8.08189 5.3884C8.82662 5.39062 9.57136 5.39284 10.3161 5.3884C10.4097 5.3884 10.4353 5.41948 10.4331 5.51497C10.4289 5.82362 10.4289 6.13005 10.4331 6.4387C10.4353 6.5253 10.4097 6.56083 10.3225 6.55639C10.1672 6.54973 10.0118 6.55861 9.85862 6.55417C9.77989 6.55195 9.74159 6.57193 9.74159 6.66519C9.74372 7.6933 9.74372 8.7214 9.74159 9.74728C9.74159 9.83832 9.77138 9.86274 9.85436 9.86274C10.1182 9.8583 10.3842 9.86496 10.648 9.8583C10.748 9.85608 10.7906 9.88051 10.7864 9.99597C10.7778 10.2713 10.78 10.5489 10.7864 10.8242C10.7885 10.9197 10.7715 10.9641 10.6651 10.9641C9.52029 10.9597 8.37553 10.9597 7.23076 10.9641C7.03925 10.9686 7.18394 10.8575 7.1733 10.7976Z" fill="white"/>
<path d="M7.25207 5.12189C7.19462 5.19739 7.15632 5.28177 7.12653 5.37281C6.99247 5.60152 6.87544 5.83912 6.76905 6.08337C6.69671 6.22105 6.62436 6.36094 6.55201 6.49639C6.52648 6.54524 6.52648 6.59409 6.53925 6.64516C6.60308 6.72732 6.67117 6.73843 6.73075 6.64294C6.76905 6.58299 6.81799 6.56523 6.88183 6.56523C7.13078 6.56523 7.37974 6.56745 7.62869 6.56523C7.74147 6.56523 7.75424 6.60742 7.7053 6.70512C7.55422 7.01599 7.40315 7.32686 7.25845 7.63996C7.14781 7.87311 7.03716 8.10627 6.92864 8.34164C6.85842 8.49042 6.88608 8.53927 7.0478 8.54149C7.22015 8.54371 7.39463 8.54149 7.59891 8.54149C7.43506 8.85236 7.28611 9.13659 7.13291 9.42303C7.10312 9.47855 7.0478 9.46744 6.99886 9.46744C6.64351 9.46744 6.28817 9.46967 5.93282 9.46744C5.67535 9.46522 5.57322 9.33199 5.61577 9.06331C5.64556 8.87012 5.74344 8.70359 5.82004 8.52817C5.86047 8.43934 5.89877 8.3483 5.93707 8.25948C6.02857 8.07518 6.11581 7.89088 6.20944 7.70657C6.25838 7.61109 6.21156 7.60443 6.13709 7.60665C5.96686 7.60887 5.79877 7.60887 5.62854 7.60665C5.28809 7.60443 5.19021 7.47786 5.26468 7.12924C5.27106 7.09815 5.27319 7.06706 5.27745 7.0382C5.55619 6.44532 5.83707 5.85022 6.11581 5.25734C6.17965 5.05527 6.32221 5.02196 6.50733 5.03529C6.72437 5.05083 6.94353 5.03973 7.16057 5.03751C7.22015 5.03529 7.2776 5.03085 7.25207 5.12189Z" fill="white"/>
<path d="M7.25925 7.63982C7.29329 7.46218 7.39543 7.31785 7.46777 7.15797C7.54863 6.97589 7.638 6.79602 7.73588 6.59618H6.84432C6.79325 6.59618 6.76984 6.63392 6.73793 6.66945C6.66771 6.74273 6.59323 6.76271 6.54004 6.64503C6.61026 6.68278 6.68048 6.71608 6.72303 6.60728C6.74857 6.54066 6.80602 6.54288 6.86134 6.54288C7.13583 6.54288 7.41032 6.5451 7.68481 6.54066C7.78056 6.53844 7.80184 6.56287 7.7529 6.65391C7.71035 6.73607 7.6763 6.82267 7.64013 6.90705C7.51246 7.15131 7.38692 7.39556 7.25925 7.63982Z" fill="white"/>
<path d="M6.61924 10.8486C6.56817 10.9507 6.48944 10.9774 6.37879 10.9752C6.03621 10.9663 5.69151 10.9707 5.34893 10.9729C5.24466 10.9729 5.1404 10.9685 5.03826 10.9396C4.934 10.8775 4.93613 10.8042 4.99145 10.6998C5.13402 10.4334 5.26169 10.1602 5.39999 9.89155C5.42553 9.84048 5.43404 9.7672 5.51064 9.76054C5.58086 9.83604 5.67448 9.82937 5.76172 9.82937C6.16601 9.83159 6.5703 9.8316 6.97459 9.82715C7.08523 9.82493 7.11715 9.84048 7.05544 9.96039C6.90862 10.2557 6.74478 10.5422 6.61924 10.8486ZM2.7466 10.6265C2.70617 10.6776 2.66787 10.7309 2.62744 10.782C2.32954 11.0285 1.98909 10.9707 1.65077 10.9396C1.50395 10.8708 1.37202 10.7798 1.26137 10.6599C1.17201 10.5066 1.11668 10.3423 1.09115 10.1647C1.07413 10.0448 1.11243 10.0181 1.21669 10.0248C1.36564 10.0314 1.51671 10.0203 1.66566 10.0292C1.77418 10.0359 1.79759 9.99369 1.79759 9.88711C1.79333 8.93228 1.79546 7.97746 1.79546 7.02263C1.79546 6.36092 1.80184 5.69698 1.80397 5.03527C2.12314 5.03527 2.44445 5.03971 2.76362 5.03527C2.85512 5.03305 2.88278 5.06413 2.88278 5.15962C2.88065 6.81391 2.88065 8.46597 2.88065 10.1203C2.88065 10.3023 2.8083 10.4622 2.7466 10.6265ZM0.1698 10.0736C0.133627 10.0159 0.097454 9.96039 0.061281 9.90265C0.00595757 9.76276 -0.0642606 9.62953 -0.145118 9.50518C-0.287682 9.30089 -0.249381 9.08994 -0.196186 8.85901C-0.0323433 8.14178 0.0208524 7.40901 -0.0174484 6.67179C-0.0217041 6.58297 -0.011065 6.54078 0.0889428 6.543C0.382583 6.54966 0.67835 6.54744 0.97199 6.543C1.0571 6.543 1.09966 6.56077 1.09753 6.66291C1.06774 7.61107 1.03795 8.55702 0.810275 9.48297C0.774102 9.62953 0.725162 9.76942 0.682606 9.91375C0.676222 9.91597 0.669839 9.91598 0.661328 9.91598C0.627282 9.9515 0.620899 10.0026 0.599621 10.0448L0.601749 10.0425C0.550681 10.0781 0.546425 10.1469 0.503869 10.1891C0.48259 10.2113 0.46344 10.2357 0.442162 10.2579C0.357049 10.349 0.295342 10.3423 0.250658 10.2157C0.233635 10.1669 0.212357 10.1114 0.1698 10.0736Z" fill="white"/>
<path d="M14.7567 5.59723C14.9439 5.39738 15.1631 5.34853 15.4142 5.43957C15.5801 5.55282 15.6972 5.69937 15.7099 5.91698C15.727 6.20121 15.5397 6.45657 15.2652 6.49209C15.0588 6.51874 14.8482 6.52096 14.6396 6.48987C14.6418 6.35664 14.6503 6.22119 14.6439 6.08796C14.6396 5.91254 14.6673 5.74822 14.7567 5.59723Z" fill="white"/>
<path d="M4.51786 10.098C4.47318 10.1424 4.44764 10.198 4.43062 10.2601C4.37955 10.3689 4.31997 10.3667 4.24124 10.2868C4.07953 10.1225 3.99867 9.91151 3.92632 9.69611C3.9093 9.64282 3.89015 9.59175 3.871 9.53846C3.78163 9.10546 3.7029 8.67023 3.66673 8.22835C3.61992 7.66655 3.56885 7.10698 3.60077 6.54297C3.92632 6.54297 4.24975 6.54963 4.57531 6.54519C4.67106 6.54297 4.70724 6.56962 4.70085 6.6762C4.66255 7.5089 4.73064 8.33049 4.9413 9.13876C4.96045 9.20982 4.94342 9.26977 4.91151 9.33195C4.82852 9.49183 4.74979 9.65392 4.66893 9.8138C4.6051 9.89818 4.55616 9.99367 4.51786 10.098Z" fill="white"/>
<path d="M0.50293 10.191C0.51794 10.1288 0.530807 10.0666 0.601571 10.0444C0.586561 10.0822 0.57155 10.1222 0.556539 10.1599C0.539384 10.1688 0.522229 10.1799 0.50293 10.191Z" fill="white"/>
<path d="M0.599741 10.0472C0.597614 9.99173 0.612508 9.9451 0.661448 9.91846C0.65932 9.96953 0.638042 10.0117 0.599741 10.0472ZM0.169922 10.0739C0.227373 10.0894 0.246523 10.1427 0.25929 10.1894C0.291208 10.307 0.35717 10.307 0.442283 10.2604C0.372065 10.3892 0.306102 10.3692 0.242268 10.2538C0.233756 10.2049 0.21035 10.1672 0.178433 10.1316C0.176305 10.1116 0.17205 10.0939 0.169922 10.0739Z" fill="white"/>
</g>
<defs>
<clipPath id="clip0_3269_24218">
<rect width="16" height="16" fill="white"/>
</clipPath>
</defs>
</svg>
