<svg width="12" height="12" viewBox="0 0 12 12" fill="none" xmlns="http://www.w3.org/2000/svg">
<path opacity="0.4" fill-rule="evenodd" clip-rule="evenodd" d="M6 12C9.31375 12 12 9.31375 12 6C12 2.68625 9.31375 0 6 0C2.68625 0 0 2.68625 0 6C0 9.31375 2.68625 12 6 12ZM6.08825 5.5575L4.19 3.65925C3.99075 3.45925 3.8055 3.45375 3.62425 3.6075C3.44325 3.761 3.48425 4.01175 3.59325 4.12425L5.55625 6.086L3.62625 8.01675C3.4445 8.19875 3.48625 8.42825 3.60975 8.561C3.733 8.694 3.998 8.73175 4.18725 8.5175L6.08425 6.6215L7.99525 8.52725C8.19425 8.72675 8.39725 8.70825 8.54775 8.5635C8.699 8.4185 8.72775 8.203 8.52925 8.0035L6.615 6.086L8.50125 4.206C8.70375 4.03175 8.72625 3.766 8.5755 3.621C8.3455 3.39975 8.113 3.5365 8.0095 3.6405L6.08825 5.55725V5.5575Z" fill="black"/>
</svg>
