<svg width="39" height="11" viewBox="0 0 39 11" fill="none" xmlns="http://www.w3.org/2000/svg">
<path d="M0.517641 4.364H1.14764L0.601641 1.242H1.93164L2.47764 4.364H2.53364V0.92H4.12964V4.364H4.17164L4.71764 1.242H6.04764L5.50164 4.364H6.04764V5.568H4.12964V10.986H2.53364V5.568H0.517641V4.364ZM1.87564 10.986H0.531641L0.839641 6.002H2.18364L1.87564 10.986ZM5.80964 6.002L6.13164 10.986H4.78764L4.47964 6.002H5.80964ZM10.4436 9.6C10.5743 9.6 10.6816 9.558 10.7656 9.474C10.8496 9.39 10.8916 9.28733 10.8916 9.166V6.73H9.23964L8.30164 10.986H6.50964L7.44764 6.73H6.50964V5.344H12.6556V9.6C12.6556 9.992 12.5203 10.3233 12.2496 10.594C11.9883 10.8553 11.6616 10.986 11.2696 10.986H9.33764L9.93964 9.6H10.4436ZM12.7256 4.658H10.7796L10.1776 0.933999H12.0676L12.7256 4.658ZM8.39964 4.588H6.46764L7.11164 0.933999H9.04364L8.39964 4.588ZM25.5905 11H13.3965V9.628H25.5905V11ZM13.4805 8.62L16.2385 4.84H15.4965H13.4805L16.5605 0.906H18.8985L16.8125 3.58H19.3185L16.5465 7.374H19.3605V8.62H13.4805ZM19.6265 8.62L22.3845 4.84H21.6285H19.6265L22.7065 0.906H25.0445L22.9445 3.58H25.4505L22.6925 7.374H25.4925V8.62H19.6265ZM26.2335 2.306H26.8215L26.5275 1.158H28.3055L28.5995 2.306H28.9215V0.906H30.8395V2.306H31.1615L31.4555 1.158H33.2335L32.9395 2.306H33.5275V3.58H30.8395V5.764H28.9215V3.58H26.2335V2.306ZM26.2335 5.764L26.7095 3.93H28.3195L27.8435 5.764H26.2335ZM31.4415 3.93H33.0515L33.5275 5.764H31.9175L31.4415 3.93ZM26.2335 9.796C26.6068 9.74933 27.0081 9.69333 27.4375 9.628C27.3161 9.58133 27.1948 9.53467 27.0735 9.488C26.9521 9.432 26.8261 9.376 26.6955 9.32V8.102V7.822H26.2335V6.548H26.6955V6.114H28.3895V6.548H31.3715V6.114H33.0655V6.548H33.5275V7.822H33.0655V8.102V9.32C32.9348 9.376 32.8088 9.432 32.6875 9.488C32.5661 9.53467 32.4448 9.58133 32.3235 9.628C32.7528 9.69333 33.1541 9.74933 33.5275 9.796V11C32.8181 10.944 32.1788 10.8787 31.6095 10.804C31.0495 10.72 30.4755 10.5987 29.8875 10.44C29.2901 10.5987 28.7068 10.72 28.1375 10.804C27.5775 10.8787 26.9428 10.944 26.2335 11V9.796ZM28.3895 8.606C28.6415 8.70867 28.8935 8.79733 29.1455 8.872C29.3975 8.94667 29.6448 9.02133 29.8875 9.096C30.1301 9.02133 30.3728 8.94667 30.6155 8.872C30.8675 8.79733 31.1195 8.70867 31.3715 8.606V7.822H28.3895V8.606ZM38.5255 3.468C38.5255 4.34533 38.4088 5.134 38.1755 5.834C37.9515 6.52467 37.6388 7.15467 37.2375 7.724C37.4335 7.91067 37.6388 8.09733 37.8535 8.284C38.0681 8.46133 38.2921 8.648 38.5255 8.844V10.944C38.0961 10.6453 37.6761 10.3373 37.2655 10.02C36.8641 9.70267 36.4861 9.36667 36.1315 9.012C35.7768 9.36667 35.3988 9.70267 34.9975 10.02C34.5961 10.3373 34.1808 10.6453 33.7515 10.944V8.844C33.9848 8.648 34.2088 8.46133 34.4235 8.284C34.6381 8.09733 34.8435 7.91067 35.0395 7.724C34.6848 7.20133 34.3955 6.632 34.1715 6.016C33.9475 5.4 33.8121 4.70467 33.7655 3.93H35.3615C35.3988 4.48067 35.4828 4.96133 35.6135 5.372C35.7535 5.77333 35.9308 6.14667 36.1455 6.492C36.4068 6.1 36.6075 5.666 36.7475 5.19C36.8968 4.70467 36.9715 4.13067 36.9715 3.468H36.3135H33.7795L34.6195 0.906H36.5795L36.2015 2.096H38.5255V3.468Z" fill="white"/>
</svg>
