<svg width="44" height="31" viewBox="0 0 44 31" xmlns="http://www.w3.org/2000/svg">
<path fill-rule="evenodd" clip-rule="evenodd" d="M23.6368 1V9.73182C23.6368 12.2493 22.3017 13.6939 19.9752 13.6939C17.668 13.6939 16.3444 12.2493 16.3444 9.73182V1H15V9.75321C15 13.0382 16.8598 15 19.9752 15C23.028 15 25 12.9409 25 9.75321V1H23.6368Z" fill="#72C4D5"/>
<path fill-rule="evenodd" clip-rule="evenodd" d="M5.10836 23.2348C3.22713 22.4351 2.27109 21.8002 2.27109 20.5529C2.27109 19.2172 3.46687 18.2842 5.17819 18.2842C6.09814 18.2842 7.07455 18.5741 7.85602 19.0793L8.04164 19.1995L8.77132 18.0293L8.61945 17.9345C7.64537 17.3315 6.45775 17 5.27536 17C2.7046 17 0.765759 18.5584 0.765759 20.6253C0.765759 22.5521 2.23734 23.547 4.44559 24.4462C6.54212 25.3199 7.47779 25.9422 7.47779 27.3237C7.47779 28.7339 6.25758 29.7194 4.51077 29.7194C3.35049 29.7194 2.13842 29.3302 0.908903 28.5622L0.720954 28.4451L0 29.6539L0.15129 29.746C1.55014 30.59 2.94433 31 4.41475 31C7.02916 31 9 29.3661 9 27.1994C9 25.2257 7.63199 24.2833 5.10836 23.2348Z" fill="#72C4D5"/>
<path fill-rule="evenodd" clip-rule="evenodd" d="M14.579 23.8063L21.7345 17H19.7992L13.4562 23.0839V17H12V31H13.4562V24.5357L20.0296 31H22L14.579 23.8063Z" fill="#72C4D5"/>
<path fill-rule="evenodd" clip-rule="evenodd" d="M25 31H27V17H25V31Z" fill="#72C4D5"/>
<path fill-rule="evenodd" clip-rule="evenodd" d="M41.801 31L32.5287 20.3565V30.921H31V17.1025L31.4376 17L40.6297 27.5495V17.0662H42V30.9637L41.801 31Z" fill="#72C4D5"/>
<path fill-rule="evenodd" clip-rule="evenodd" d="M11.801 15L2.52866 4.35652V14.7966H1V1.10251L1.43764 1L10.6297 11.5495V1.18366H12V14.9637L11.801 15Z" fill="#72C4D5"/>
<path fill-rule="evenodd" clip-rule="evenodd" d="M40.7285 4.15049C40.7285 4.15049 42.1021 4.07475 43.1393 5.28491C43.4838 5.68849 43.8117 6.2068 44 6.92973C43.5031 3.01947 40.3359 0.00395662 36.4995 0C32.6636 0.00395662 29.4959 3.01947 29 6.92973C29.1878 6.2068 29.5162 5.68849 29.8601 5.28491C30.8973 4.07475 32.271 4.15049 32.271 4.15049C35.6859 4.3325 35.6992 7.96354 35.6992 7.96354V15.9633C35.8602 15.9802 36.0213 15.9921 36.1844 16V7.45936C36.1844 6.29441 35.8388 5.16282 35.0723 4.35454C34.3684 3.60844 33.4553 3.19469 32.4999 3.18056C32.9054 2.42936 33.474 1.79857 34.1453 1.35769C34.8546 0.893065 35.6698 0.645494 36.4989 0.645494H36.5C37.3296 0.645494 38.1438 0.893065 38.8531 1.35769C39.5255 1.79857 40.0941 2.42936 40.499 3.18056C39.5442 3.19469 38.6311 3.60844 37.9266 4.35454C37.1606 5.16282 36.8145 6.29441 36.8145 7.45936V16C36.9771 15.9921 37.1398 15.9802 37.2997 15.9633V7.96354C37.2997 7.96354 37.3141 4.3325 40.7285 4.15049ZM41.035 8.47056C41.035 8.47056 40.5231 8.48016 40.0903 8.7673C39.5763 9.10757 39.0403 9.79828 39.0403 11.2266V15.5467C40.5584 14.9685 41.8577 13.8923 42.751 12.5029C43.3426 11.4855 43.3709 10.6755 43.2222 10.0916C43.0126 9.33706 42.3568 8.39312 41.035 8.47056ZM42.9671 6.59229C42.5076 6.21246 41.8234 5.92362 40.805 5.92362C40.805 5.92362 37.9293 5.94171 37.9293 8.61073V15.87C38.0919 15.8355 38.2524 15.7982 38.4112 15.7536V9.32236C38.4112 9.32236 38.3957 8.80574 38.6696 8.23372C38.9643 7.57975 39.5966 6.86756 40.9526 6.82799C40.9526 6.82799 42.0952 6.71608 42.9473 7.69958C43.3479 8.18511 43.7101 8.75656 43.7181 10.3805C44.4343 8.12803 43.3389 6.93087 42.9671 6.59229ZM32.195 5.92362C31.1776 5.92362 30.494 6.21246 30.0334 6.59229C29.6622 6.93087 28.5662 8.12803 29.2824 10.3805C29.2899 8.75656 29.6521 8.18511 30.0532 7.69958C30.9054 6.71608 32.0485 6.82799 32.0485 6.82799C33.4039 6.86756 34.0362 7.57975 34.3315 8.23372C34.6043 8.80574 34.5898 9.32236 34.5898 9.32236V15.7536C34.7482 15.7982 34.9086 15.8355 35.0707 15.87V8.61073C35.0707 5.94171 32.195 5.92362 32.195 5.92362ZM32.9113 8.7673C32.478 8.48016 31.9656 8.47056 31.9656 8.47056C30.6438 8.39312 29.9885 9.33706 29.7788 10.0916C29.6301 10.6755 29.6585 11.4855 30.2496 12.5029C31.1429 13.8923 32.4422 14.9685 33.9608 15.5467V11.2266C33.9608 9.79828 33.4243 9.10757 32.9113 8.7673Z"/>
</svg>
