<svg width="16" height="16" viewBox="0 0 16 16" fill="none" xmlns="http://www.w3.org/2000/svg">
<path d="M16 0H0V16H16V0Z" fill="white" fill-opacity="0.01"/>
<path d="M4.18727 5.47005C3.07254 6.55335 0.72108 9.71509 2.45418 11.977C4.18727 14.2389 9.09403 13.3664 11.1197 11.7728C13.1453 10.1793 12.9453 9.19469 12.5061 8.76082C12.067 8.32699 10.7852 8.76542 10.4264 8.17509C10.0677 7.58475 11.0652 6.11009 10.2151 5.64345C9.36493 5.17682 7.8969 6.86009 7.23383 6.42272C6.57073 5.98535 7.96353 4.55735 7.23383 4.14589C6.5041 3.73439 5.302 4.38675 4.18727 5.47005Z" stroke="white" stroke-linejoin="round"/>
<path d="M14.4592 5.50441C14.3808 4.46071 13.9327 3.52017 13.2454 2.81336C12.5746 2.12348 11.6759 1.65627 10.6709 1.5332" stroke="white" stroke-linecap="round"/>
<path d="M12.4303 5.64419C12.3873 5.09762 12.1413 4.60505 11.764 4.23489C11.3957 3.87359 10.9023 3.62892 10.3506 3.56445" stroke="white" stroke-linecap="round"/>
<path d="M8.33301 9.99935C8.33301 10.7357 7.43757 11.3327 6.33301 11.3327C5.22844 11.3327 4.33301 10.7357 4.33301 9.99935C4.33301 9.26298 5.22844 8.66602 6.33301 8.66602C7.43757 8.66602 8.33301 9.26298 8.33301 9.99935Z" fill="white"/>
</svg>
