<svg width="200" height="162" viewBox="0 0 200 162"  xmlns="http://www.w3.org/2000/svg">
<path d="M117.461 73.0021H77.8221C76.7239 73.0008 75.6709 72.5656 74.8943 71.7918C74.1177 71.018 73.6809 69.9688 73.6797 68.8745V17.3267C73.6809 16.2324 74.1178 15.1833 74.8944 14.4095C75.671 13.6357 76.7239 13.2005 77.8221 13.1992H117.461C118.559 13.2005 119.612 13.6357 120.389 14.4095C121.166 15.1833 121.602 16.2324 121.604 17.3267V68.8745C121.602 69.9688 121.166 71.018 120.389 71.7918C119.612 72.5656 118.559 73.0008 117.461 73.0021Z" fill="#F0F0F0"/>
<path d="M117.461 73.2014H77.822C76.6707 73.2001 75.5669 72.7438 74.7528 71.9327C73.9387 71.1215 73.4808 70.0217 73.4795 68.8745V17.3268C73.4808 16.1797 73.9387 15.0799 74.7528 14.2688C75.5669 13.4576 76.6707 13.0013 77.822 13H117.461C118.612 13.0013 119.716 13.4576 120.53 14.2687C121.344 15.0799 121.802 16.1797 121.804 17.3268V68.8745C121.802 70.0217 121.344 71.1215 120.53 71.9327C119.716 72.7439 118.612 73.2001 117.461 73.2014ZM77.822 13.3987C76.7767 13.3999 75.7747 13.8141 75.0356 14.5505C74.2965 15.2869 73.8808 16.2854 73.8796 17.3268V68.8745C73.8808 69.916 74.2965 70.9144 75.0356 71.6509C75.7747 72.3873 76.7767 72.8016 77.822 72.8027H117.461C118.506 72.8016 119.508 72.3874 120.247 71.6509C120.986 70.9145 121.402 69.916 121.403 68.8745V17.3268C121.402 16.2854 120.986 15.2869 120.247 14.5505C119.508 13.8141 118.506 13.3998 117.461 13.3987H77.822Z"/>
<path d="M181.858 73.0021H142.219C141.12 73.0008 140.067 72.5656 139.291 71.7918C138.514 71.018 138.077 69.9688 138.076 68.8745V17.3267C138.077 16.2324 138.514 15.1833 139.291 14.4095C140.067 13.6357 141.12 13.2005 142.219 13.1992H181.858C182.956 13.2005 184.009 13.6357 184.785 14.4095C185.562 15.1833 185.999 16.2324 186 17.3267V68.8745C185.999 69.9688 185.562 71.018 184.785 71.7918C184.009 72.5656 182.956 73.0008 181.858 73.0021Z" fill="#F0F0F0"/>
<path d="M96.9398 79.3818C100.897 79.3818 104.104 76.1857 104.104 72.2432C104.104 68.3006 100.897 65.1045 96.9398 65.1045C92.983 65.1045 89.7754 68.3006 89.7754 72.2432C89.7754 76.1857 92.983 79.3818 96.9398 79.3818Z" />
<path d="M95.9633 75.9585C95.8396 75.9585 95.7176 75.9298 95.6069 75.8747C95.4963 75.8195 95.4001 75.7395 95.3259 75.6408L93.3713 73.0441C93.3085 72.9607 93.2628 72.8657 93.2368 72.7647C93.2109 72.6637 93.2051 72.5586 93.2199 72.4553C93.2347 72.3521 93.2698 72.2528 93.3231 72.1631C93.3764 72.0734 93.447 71.995 93.5307 71.9324C93.6144 71.8698 93.7097 71.8243 93.8111 71.7984C93.9125 71.7726 94.018 71.7668 94.1216 71.7816C94.2252 71.7963 94.3248 71.8313 94.4149 71.8844C94.5049 71.9375 94.5836 72.0078 94.6464 72.0913L95.9251 73.79L99.2094 68.8813C99.327 68.7068 99.5092 68.5859 99.7161 68.545C99.923 68.5041 100.138 68.5466 100.313 68.6632C100.489 68.7797 100.611 68.9609 100.652 69.1669C100.694 69.373 100.652 69.5871 100.536 69.7623L96.6265 75.6049C96.5558 75.7106 96.4607 75.7978 96.3491 75.8593C96.2376 75.9208 96.1129 75.9547 95.9855 75.9583C95.9781 75.9584 95.9707 75.9585 95.9633 75.9585Z" fill="white"/>
<path d="M90.7242 100.57H14.7005C14.2497 100.569 13.8174 100.39 13.4986 100.073C13.1798 99.7552 13.0005 99.3245 13 98.8753V30.3013C13.0005 29.8521 13.1798 29.4214 13.4986 29.1038C13.8174 28.7861 14.2497 28.6074 14.7005 28.6069H90.7242C91.1751 28.6074 91.6073 28.7861 91.9261 29.1038C92.2449 29.4214 92.4242 29.8521 92.4248 30.3013V98.8753C92.4242 99.3245 92.2449 99.7552 91.9261 100.073C91.6073 100.39 91.1751 100.569 90.7242 100.57Z" fill="#3F3D56"/>
<path d="M89.1238 98.9749H16.3011C15.8503 98.9744 15.418 98.7957 15.0992 98.4781C14.7804 98.1604 14.6011 97.7297 14.6006 97.2805V31.8961C14.6011 31.4468 14.7804 31.0162 15.0992 30.6985C15.418 30.3808 15.8503 30.2022 16.3011 30.2017H89.1238C89.5747 30.2022 90.0069 30.3808 90.3257 30.6985C90.6445 31.0161 90.8238 31.4468 90.8243 31.8961V97.2805C90.8238 97.7297 90.6445 98.1604 90.3257 98.4781C90.0069 98.7957 89.5747 98.9744 89.1238 98.9749Z" fill="white"/>
<path d="M20.0007 37.3047C28.5709 37.1562 37.1419 37.1349 45.7139 37.2407C54.2846 37.3472 62.8525 37.5813 71.4174 37.9432C76.2236 38.1463 81.0278 38.3896 85.8301 38.6731C86.2159 38.6959 86.2146 38.0978 85.8301 38.0751C77.2736 37.5706 68.7109 37.1931 60.142 36.9426C51.5743 36.6928 43.0041 36.5707 34.4314 36.5764C29.6209 36.5795 24.8107 36.623 20.0007 36.7067C19.6149 36.7134 19.6137 37.3114 20.0007 37.3047V37.3047Z" fill="#3F3D56"/>
<path d="M79.7268 33.5552L83.4742 33.2772C83.8571 33.2489 83.8602 32.6506 83.4742 32.6792L79.7268 32.9571C79.3439 32.9855 79.3408 33.5838 79.7268 33.5552Z" fill="#3F3D56"/>
<path d="M79.7268 37.143L83.4742 36.8651C83.8571 36.8367 83.8602 36.2385 83.4742 36.2671L79.7268 36.545C79.3439 36.5734 79.3408 37.1717 79.7268 37.143Z" fill="#3F3D56"/>
<path d="M79.4447 35.5048L84.7728 35.9871C85.1573 36.0219 85.1549 35.4236 84.7728 35.389L79.4447 34.9067C79.0602 34.8719 79.0626 35.4702 79.4447 35.5048Z" fill="#3F3D56"/>
<path d="M22.2185 32.751C21.9579 32.7494 21.7026 32.8243 21.4844 32.9662C21.2662 33.1082 21.0948 33.3111 20.9915 33.5495C20.876 33.7828 20.8403 34.0474 20.89 34.3029C20.9396 34.5583 21.0719 34.7905 21.2665 34.964C21.4495 35.1191 21.669 35.2254 21.9044 35.2731C22.1398 35.3208 22.3835 35.3082 22.6127 35.2365C22.8471 35.1549 23.0504 35.0029 23.1945 34.8015C23.3387 34.6001 23.4166 34.3591 23.4176 34.1117C23.4281 33.8372 23.3535 33.5661 23.2039 33.3354C23.0543 33.1047 22.8371 32.9255 22.5817 32.8221C22.5049 32.8013 22.4231 32.8116 22.3539 32.8507C22.2848 32.8899 22.2339 32.9546 22.2125 33.031C22.1936 33.1073 22.2048 33.1881 22.2438 33.2565C22.2827 33.3249 22.3466 33.3758 22.4221 33.3988C22.4744 33.4189 22.3743 33.3732 22.4232 33.3997C22.4432 33.4106 22.4637 33.4204 22.4834 33.4321C22.5002 33.4419 22.5162 33.4528 22.5325 33.4634C22.5886 33.4998 22.5052 33.4366 22.541 33.4694C22.5721 33.4978 22.6028 33.5255 22.631 33.5568C22.6417 33.5687 22.6835 33.6016 22.651 33.5786C22.6262 33.561 22.6414 33.5651 22.651 33.5793C22.6583 33.59 22.666 33.6005 22.6732 33.6113C22.6966 33.6465 22.7178 33.6832 22.7369 33.721C22.7413 33.7297 22.7453 33.7387 22.7498 33.7474C22.7582 33.7637 22.7704 33.7679 22.7506 33.7475C22.7317 33.728 22.7438 33.7293 22.7505 33.7481C22.7549 33.7605 22.7598 33.7727 22.7641 33.785C22.7782 33.8254 22.79 33.8665 22.7995 33.9081C22.8039 33.9273 22.8074 33.9467 22.8112 33.9661C22.8246 34.0347 22.8093 33.9234 22.8125 33.9744C22.8152 34.017 22.8184 34.0591 22.8176 34.1019C22.8173 34.1214 22.8164 34.141 22.8151 34.1605C22.8144 34.1702 22.8133 34.1799 22.8126 34.1897C22.8095 34.2366 22.8094 34.1725 22.816 34.1681C22.8023 34.208 22.7932 34.2492 22.7889 34.2911C22.7835 34.3097 22.7771 34.3279 22.7711 34.3463C22.7503 34.4104 22.7908 34.3113 22.7685 34.3552C22.7502 34.3928 22.7297 34.4294 22.7072 34.4648C22.6974 34.4795 22.6605 34.513 22.6907 34.4897C22.7234 34.4645 22.6735 34.5079 22.6629 34.5191C22.6492 34.5335 22.635 34.5473 22.6203 34.5607C22.6109 34.5699 22.601 34.5785 22.5906 34.5865C22.5887 34.5855 22.6407 34.5519 22.6127 34.5697C22.577 34.5923 22.5432 34.6166 22.5057 34.6363C22.5013 34.6386 22.4532 34.6608 22.4534 34.6616C22.4514 34.6535 22.5152 34.6392 22.4714 34.6533C22.4622 34.6562 22.4532 34.6598 22.444 34.6629C22.4041 34.6763 22.3634 34.6871 22.3221 34.6953C22.3126 34.6971 22.3026 34.6981 22.2933 34.7005C22.2623 34.7085 22.323 34.6958 22.3248 34.6968C22.3018 34.6959 22.2789 34.6979 22.2565 34.7029C22.2139 34.7053 22.1712 34.7053 22.1286 34.7029C22.1188 34.7023 22.109 34.7013 22.0991 34.7007C22.0763 34.6994 22.0595 34.683 22.0899 34.7008C22.1134 34.7146 22.1114 34.7045 22.0906 34.7007C22.0809 34.6989 22.0711 34.6974 22.0614 34.6956C22.0193 34.6877 21.9776 34.6776 21.9366 34.6651C21.9145 34.6584 21.8929 34.6506 21.8711 34.643C21.8616 34.6403 21.8524 34.6368 21.8435 34.6325C21.8433 34.63 21.8996 34.6592 21.8699 34.6433C21.8324 34.6232 21.7937 34.6063 21.757 34.5843C21.7375 34.5725 21.7188 34.5598 21.6998 34.5472C21.6914 34.5422 21.6835 34.5365 21.676 34.5303C21.6766 34.5277 21.7225 34.5701 21.6984 34.5472C21.668 34.5183 21.6354 34.4924 21.6065 34.4616C21.5999 34.4545 21.5937 34.4472 21.5871 34.4401L21.5807 34.4329C21.5645 34.413 21.5642 34.4131 21.5798 34.4331C21.5957 34.4378 21.595 34.4552 21.5799 34.4326C21.5745 34.4246 21.5688 34.4167 21.5635 34.4087C21.5391 34.3741 21.5183 34.3371 21.5014 34.2983C21.5029 34.2972 21.5274 34.3703 21.5087 34.3151C21.5051 34.3047 21.5011 34.2944 21.4977 34.284C21.4908 34.2633 21.4847 34.2423 21.4794 34.2212C21.4743 34.2002 21.4716 34.1785 21.4664 34.1576C21.4575 34.1224 21.4715 34.1854 21.4699 34.1839C21.4649 34.1789 21.467 34.1484 21.4667 34.1411C21.4643 34.0942 21.4696 34.0486 21.4705 34.002C21.4711 33.9659 21.4675 34.0301 21.4667 34.0283C21.4669 34.0174 21.4688 34.0067 21.4724 33.9965C21.4778 33.9719 21.4829 33.9473 21.4896 33.923C21.4972 33.8952 21.5059 33.8677 21.5159 33.8405C21.5196 33.8303 21.5241 33.8203 21.5275 33.81C21.5402 33.7725 21.5025 33.8554 21.5233 33.8215C21.5518 33.775 21.5731 33.7245 21.6034 33.6785C21.6106 33.6676 21.6543 33.6069 21.6311 33.6376C21.608 33.6681 21.6548 33.6102 21.6637 33.6004C21.7005 33.5595 21.7438 33.526 21.7819 33.4869C21.8044 33.4637 21.7661 33.4983 21.7639 33.4999C21.7757 33.4915 21.7872 33.4828 21.7992 33.4746C21.82 33.4603 21.8414 33.4467 21.8632 33.434C21.8878 33.4196 21.9157 33.4089 21.9395 33.3937C21.9677 33.3757 21.918 33.4016 21.9171 33.4021C21.93 33.3957 21.9434 33.3906 21.9573 33.3868C21.9805 33.3786 22.0816 33.3352 22.1028 33.3488C22.1018 33.3482 22.026 33.3548 22.0873 33.3509C22.1018 33.35 22.1162 33.3486 22.1307 33.348C22.16 33.3468 22.1892 33.3475 22.2185 33.349C22.298 33.3485 22.374 33.3168 22.4302 33.2609C22.4863 33.2049 22.5181 33.1292 22.5186 33.05C22.5169 32.9712 22.4848 32.8962 22.4289 32.8405C22.3729 32.7847 22.2976 32.7527 22.2185 32.751Z" fill="#3F3D56"/>
<path d="M26.4197 32.751C26.1591 32.7494 25.9038 32.8243 25.6856 32.9662C25.4674 33.1082 25.296 33.3111 25.1927 33.5495C25.0772 33.7828 25.0415 34.0474 25.0912 34.3029C25.1408 34.5583 25.2731 34.7905 25.4677 34.964C25.6507 35.1191 25.8701 35.2254 26.1056 35.2731C26.341 35.3208 26.5847 35.3082 26.8139 35.2365C27.0483 35.1549 27.2516 35.0029 27.3957 34.8015C27.5399 34.6001 27.6178 34.3591 27.6188 34.1117C27.6293 33.8372 27.5546 33.5661 27.4051 33.3354C27.2555 33.1047 27.0382 32.9255 26.7828 32.8221C26.7061 32.8013 26.6242 32.8116 26.5551 32.8507C26.4859 32.8899 26.4351 32.9546 26.4137 33.031C26.3948 33.1073 26.4059 33.1881 26.4449 33.2565C26.4839 33.3249 26.5478 33.3758 26.6233 33.3988C26.6756 33.4189 26.5755 33.3732 26.6243 33.3997C26.6444 33.4106 26.6649 33.4204 26.6846 33.4321C26.7014 33.4419 26.7174 33.4528 26.7337 33.4634C26.7897 33.4998 26.7064 33.4366 26.7422 33.4694C26.7732 33.4978 26.804 33.5255 26.8322 33.5568C26.8429 33.5687 26.8847 33.6016 26.8522 33.5786C26.8273 33.561 26.8426 33.5651 26.8522 33.5793C26.8595 33.59 26.8672 33.6005 26.8743 33.6113C26.8977 33.6465 26.919 33.6832 26.938 33.721C26.9424 33.7297 26.9465 33.7387 26.951 33.7474C26.9594 33.7637 26.9715 33.7679 26.9518 33.7475C26.9329 33.728 26.9449 33.7293 26.9517 33.7481C26.9561 33.7605 26.961 33.7727 26.9653 33.785C26.9794 33.8254 26.9912 33.8665 27.0007 33.9081C27.0051 33.9273 27.0086 33.9467 27.0124 33.9661C27.0258 34.0347 27.0104 33.9234 27.0137 33.9744C27.0164 34.017 27.0195 34.0591 27.0188 34.1019C27.0184 34.1214 27.0176 34.141 27.0162 34.1605C27.0155 34.1702 27.0144 34.1799 27.0138 34.1897C27.0107 34.2366 27.0106 34.1725 27.0172 34.1681C27.0035 34.208 26.9944 34.2492 26.9901 34.2911C26.9847 34.3097 26.9783 34.3279 26.9723 34.3463C26.9514 34.4104 26.9919 34.3113 26.9697 34.3552C26.9514 34.3928 26.9309 34.4294 26.9084 34.4648C26.8986 34.4795 26.8617 34.513 26.8919 34.4897C26.9246 34.4645 26.8747 34.5079 26.8641 34.5191C26.8504 34.5335 26.8362 34.5473 26.8215 34.5607C26.8121 34.5699 26.8022 34.5785 26.7918 34.5865C26.7898 34.5855 26.8419 34.5519 26.8138 34.5697C26.7782 34.5923 26.7444 34.6166 26.7068 34.6363C26.7025 34.6386 26.6544 34.6608 26.6546 34.6616C26.6525 34.6535 26.7164 34.6392 26.6726 34.6533C26.6634 34.6562 26.6543 34.6598 26.6452 34.6629C26.6053 34.6763 26.5645 34.6871 26.5232 34.6953C26.5138 34.6971 26.5038 34.6981 26.4945 34.7005C26.4635 34.7085 26.5241 34.6958 26.526 34.6968C26.503 34.6959 26.4801 34.6979 26.4577 34.7029C26.4151 34.7053 26.3724 34.7053 26.3298 34.7029C26.32 34.7023 26.3101 34.7013 26.3003 34.7007C26.2774 34.6994 26.2606 34.683 26.2911 34.7008C26.3146 34.7146 26.3126 34.7045 26.2918 34.7007C26.2821 34.6989 26.2723 34.6974 26.2626 34.6956C26.2204 34.6877 26.1788 34.6776 26.1377 34.6651C26.1157 34.6584 26.094 34.6506 26.0723 34.643C26.0628 34.6403 26.0535 34.6368 26.0447 34.6325C26.0445 34.63 26.1008 34.6592 26.0711 34.6433C26.0336 34.6232 25.9948 34.6063 25.9582 34.5843C25.9387 34.5725 25.9199 34.5598 25.9009 34.5472C25.8926 34.5422 25.8846 34.5365 25.8772 34.5303C25.8778 34.5277 25.9237 34.5701 25.8996 34.5472C25.8691 34.5183 25.8366 34.4924 25.8077 34.4616C25.8011 34.4545 25.7948 34.4472 25.7883 34.4401L25.7819 34.4329C25.7656 34.413 25.7653 34.4131 25.781 34.4331C25.7969 34.4378 25.7962 34.4552 25.7811 34.4326C25.7757 34.4246 25.77 34.4167 25.7646 34.4087C25.7403 34.3741 25.7195 34.3371 25.7026 34.2983C25.7041 34.2972 25.7286 34.3703 25.7098 34.3151C25.7063 34.3047 25.7023 34.2944 25.6988 34.284C25.6919 34.2633 25.6859 34.2423 25.6806 34.2212C25.6754 34.2002 25.6728 34.1785 25.6675 34.1576C25.6587 34.1224 25.6727 34.1854 25.6711 34.1839C25.6661 34.1789 25.6682 34.1484 25.6678 34.1411C25.6654 34.0942 25.6708 34.0486 25.6716 34.002C25.6723 33.9659 25.6686 34.0301 25.6679 34.0283C25.6681 34.0174 25.67 34.0067 25.6736 33.9965C25.679 33.9719 25.6841 33.9473 25.6907 33.923C25.6983 33.8952 25.7071 33.8677 25.717 33.8405C25.7207 33.8303 25.7252 33.8203 25.7287 33.81C25.7413 33.7725 25.7037 33.8554 25.7244 33.8215C25.753 33.775 25.7743 33.7245 25.8046 33.6785C25.8117 33.6676 25.8554 33.6069 25.8322 33.6376C25.8092 33.6681 25.856 33.6102 25.8648 33.6004C25.9016 33.5595 25.9449 33.526 25.983 33.4869C26.0056 33.4637 25.9673 33.4983 25.965 33.4999C25.9768 33.4915 25.9884 33.4828 26.0003 33.4746C26.0212 33.4603 26.0425 33.4467 26.0644 33.434C26.089 33.4196 26.1168 33.4089 26.1407 33.3937C26.1689 33.3757 26.1191 33.4016 26.1183 33.4021C26.1311 33.3957 26.1446 33.3906 26.1584 33.3868C26.1817 33.3786 26.2828 33.3352 26.304 33.3488C26.303 33.3482 26.2272 33.3548 26.2885 33.3509C26.3029 33.35 26.3174 33.3486 26.3319 33.348C26.3612 33.3468 26.3904 33.3475 26.4197 33.349C26.4991 33.3485 26.5752 33.3168 26.6313 33.2609C26.6875 33.2049 26.7193 33.1292 26.7198 33.05C26.7181 32.9712 26.6859 32.8962 26.63 32.8405C26.5741 32.7847 26.4988 32.7527 26.4197 32.751Z" fill="#3F3D56"/>
<path d="M30.6209 32.751C30.3603 32.7494 30.105 32.8243 29.8868 32.9662C29.6686 33.1082 29.4972 33.3111 29.3939 33.5495C29.2783 33.7828 29.2427 34.0474 29.2923 34.3029C29.342 34.5583 29.4742 34.7905 29.6689 34.964C29.8519 35.1191 30.0713 35.2254 30.3067 35.2731C30.5421 35.3208 30.7858 35.3082 31.0151 35.2365C31.2495 35.1549 31.4527 35.0029 31.5969 34.8015C31.741 34.6001 31.819 34.3591 31.82 34.1117C31.8304 33.8372 31.7558 33.5661 31.6062 33.3354C31.4567 33.1047 31.2394 32.9255 30.984 32.8221C30.9073 32.8013 30.8254 32.8116 30.7563 32.8507C30.6871 32.8899 30.6363 32.9546 30.6149 33.031C30.5959 33.1073 30.6071 33.1881 30.6461 33.2565C30.6851 33.3249 30.7489 33.3758 30.8245 33.3988C30.8768 33.4189 30.7767 33.3732 30.8255 33.3997C30.8456 33.4106 30.866 33.4204 30.8858 33.4321C30.9025 33.4419 30.9186 33.4528 30.9349 33.4634C30.9909 33.4998 30.9075 33.4366 30.9433 33.4694C30.9744 33.4978 31.0052 33.5255 31.0334 33.5568C31.0441 33.5687 31.0859 33.6016 31.0534 33.5786C31.0285 33.561 31.0438 33.5651 31.0534 33.5793C31.0606 33.59 31.0683 33.6005 31.0755 33.6113C31.0989 33.6465 31.1202 33.6832 31.1392 33.721C31.1436 33.7297 31.1476 33.7387 31.1521 33.7474C31.1605 33.7637 31.1727 33.7679 31.1529 33.7475C31.1341 33.728 31.1461 33.7293 31.1528 33.7481C31.1573 33.7605 31.1621 33.7727 31.1664 33.785C31.1805 33.8254 31.1923 33.8665 31.2018 33.9081C31.2062 33.9273 31.2098 33.9467 31.2135 33.9661C31.2269 34.0347 31.2116 33.9234 31.2148 33.9744C31.2175 34.017 31.2207 34.0591 31.2199 34.1019C31.2196 34.1214 31.2188 34.141 31.2174 34.1605C31.2167 34.1702 31.2156 34.1799 31.215 34.1897C31.2118 34.2366 31.2118 34.1725 31.2183 34.1681C31.2046 34.208 31.1955 34.2492 31.1912 34.2911C31.1858 34.3097 31.1795 34.3279 31.1735 34.3463C31.1526 34.4104 31.1931 34.3113 31.1708 34.3552C31.1525 34.3928 31.132 34.4294 31.1095 34.4648C31.0997 34.4795 31.0629 34.513 31.093 34.4897C31.1257 34.4645 31.0759 34.5079 31.0652 34.5191C31.0516 34.5335 31.0374 34.5473 31.0227 34.5607C31.0133 34.5699 31.0033 34.5785 30.9929 34.5865C30.991 34.5855 31.043 34.5519 31.015 34.5697C30.9793 34.5923 30.9456 34.6166 30.908 34.6363C30.9036 34.6386 30.8556 34.6608 30.8558 34.6616C30.8537 34.6535 30.9175 34.6392 30.8737 34.6533C30.8645 34.6562 30.8555 34.6598 30.8463 34.6629C30.8064 34.6763 30.7657 34.6871 30.7244 34.6953C30.715 34.6971 30.705 34.6981 30.6956 34.7005C30.6646 34.7085 30.7253 34.6958 30.7271 34.6968C30.7042 34.6959 30.6812 34.6979 30.6588 34.7029C30.6162 34.7053 30.5736 34.7053 30.531 34.7029C30.5211 34.7023 30.5113 34.7013 30.5015 34.7007C30.4786 34.6994 30.4618 34.683 30.4922 34.7008C30.5157 34.7146 30.5138 34.7045 30.493 34.7007C30.4832 34.6989 30.4735 34.6974 30.4637 34.6956C30.4216 34.6877 30.3799 34.6776 30.3389 34.6651C30.3168 34.6584 30.2952 34.6506 30.2734 34.643C30.2639 34.6403 30.2547 34.6368 30.2458 34.6325C30.2457 34.63 30.3019 34.6592 30.2722 34.6433C30.2347 34.6232 30.196 34.6063 30.1594 34.5843C30.1398 34.5725 30.1211 34.5598 30.1021 34.5472C30.0937 34.5422 30.0858 34.5365 30.0783 34.5303C30.079 34.5277 30.1249 34.5701 30.1008 34.5472C30.0703 34.5183 30.0377 34.4924 30.0089 34.4616C30.0023 34.4545 29.996 34.4472 29.9894 34.4401L29.9831 34.4329C29.9668 34.413 29.9665 34.4131 29.9822 34.4331C29.9981 34.4378 29.9973 34.4552 29.9822 34.4326C29.9769 34.4246 29.9712 34.4167 29.9658 34.4087C29.9414 34.3741 29.9206 34.3371 29.9038 34.2983C29.9052 34.2972 29.9298 34.3703 29.911 34.3151C29.9074 34.3047 29.9035 34.2944 29.9 34.284C29.8931 34.2633 29.887 34.2423 29.8818 34.2212C29.8766 34.2002 29.8739 34.1785 29.8687 34.1576C29.8599 34.1224 29.8739 34.1854 29.8723 34.1839C29.8673 34.1789 29.8694 34.1484 29.869 34.1411C29.8666 34.0942 29.872 34.0486 29.8728 34.002C29.8735 33.9659 29.8698 34.0301 29.8691 34.0283C29.8692 34.0174 29.8712 34.0067 29.8748 33.9965C29.8802 33.9719 29.8852 33.9473 29.8919 33.923C29.8995 33.8952 29.9083 33.8677 29.9182 33.8405C29.9219 33.8303 29.9264 33.8203 29.9299 33.81C29.9425 33.7725 29.9049 33.8554 29.9256 33.8215C29.9542 33.775 29.9754 33.7245 30.0057 33.6785C30.0129 33.6676 30.0566 33.6069 30.0334 33.6376C30.0103 33.6681 30.0571 33.6102 30.066 33.6004C30.1028 33.5595 30.1461 33.526 30.1842 33.4869C30.2068 33.4637 30.1685 33.4983 30.1662 33.4999C30.178 33.4915 30.1896 33.4828 30.2015 33.4746C30.2223 33.4603 30.2437 33.4467 30.2656 33.434C30.2902 33.4196 30.318 33.4089 30.3419 33.3937C30.3701 33.3757 30.3203 33.4016 30.3194 33.4021C30.3323 33.3957 30.3458 33.3906 30.3596 33.3868C30.3829 33.3786 30.4839 33.3352 30.5051 33.3488C30.5042 33.3482 30.4284 33.3548 30.4896 33.3509C30.5041 33.35 30.5185 33.3486 30.533 33.348C30.5624 33.3468 30.5916 33.3475 30.6209 33.349C30.7003 33.3485 30.7763 33.3168 30.8325 33.2609C30.8887 33.2049 30.9205 33.1292 30.921 33.05C30.9193 32.9712 30.8871 32.8962 30.8312 32.8405C30.7753 32.7847 30.6999 32.7527 30.6209 32.751Z" fill="#3F3D56"/>
<path d="M21.8537 48.4552L22.1213 58.6625L22.3889 68.8697C22.4227 70.1577 22.2401 71.9144 23.5512 72.6689C24.0981 72.9836 24.7521 73.0526 25.3719 73.0697C26.1948 73.0925 27.0203 73.0756 27.8435 73.0765L38.0967 73.0874C39.4438 73.0888 40.9235 73.0497 41.8887 71.9685C42.6943 71.0661 42.9226 69.815 43.0034 68.6476C43.11 67.1069 43.0588 65.547 43.0727 64.0032L43.1187 58.8734L43.1648 53.7436C43.1787 52.1852 43.2527 50.6141 43.1841 49.0567C43.1318 47.8684 42.9301 46.5994 42.1306 45.6656C41.2197 44.6018 39.7795 44.4582 38.4659 44.4163C35.0686 44.308 31.6707 44.2165 28.2732 44.1166C27.4915 44.0937 26.7076 44.0519 25.9255 44.0621C25.23 44.0487 24.5374 44.1545 23.8778 44.3747C22.7793 44.7845 21.9212 45.7675 21.9594 46.9866C21.9618 47.242 22.0184 47.4939 22.1254 47.726C22.2323 47.9581 22.3873 48.165 22.58 48.3333C22.8732 48.5804 23.2998 48.1594 23.0044 47.9104C22.2037 47.2355 22.5915 45.9708 23.2914 45.3718C24.3056 44.504 25.8955 44.6448 27.1321 44.6811L36.7567 44.964C37.5031 44.9859 38.2516 44.9933 38.9971 45.037C39.6626 45.076 40.3578 45.1622 40.9535 45.4815C41.9835 46.0337 42.3855 47.1667 42.5208 48.2625C42.6911 49.6412 42.5886 51.0638 42.5762 52.4487L42.5324 57.3295L42.4457 66.9915C42.4351 68.1667 42.4534 69.3796 42.0565 70.5033C41.886 71.0246 41.5736 71.4885 41.1543 71.8435C40.6277 72.2243 39.9984 72.4387 39.348 72.4589C38.6175 72.5176 37.8786 72.4891 37.1463 72.4884L34.6456 72.4857L29.8441 72.4806L27.3433 72.4779C26.6126 72.4772 25.8765 72.5027 25.1467 72.4627C24.5865 72.432 23.9615 72.3355 23.5488 71.9203C23.0865 71.4553 23.0436 70.737 23.0224 70.1203C22.8014 63.6976 22.6849 57.2695 22.5165 50.8452L22.4538 48.4552C22.4438 48.0711 21.8435 48.0696 21.8536 48.4552L21.8537 48.4552Z" fill="#3F3D56"/>
<path d="M59.8654 48.4552L60.133 58.6625L60.4006 68.8697C60.4344 70.1577 60.2518 71.9144 61.5629 72.6689C62.1099 72.9836 62.7638 73.0526 63.3837 73.0697C64.2065 73.0925 65.032 73.0756 65.8552 73.0765L76.1084 73.0874C77.4555 73.0888 78.9352 73.0497 79.9004 71.9685C80.706 71.0661 80.9343 69.815 81.0151 68.6476C81.1217 67.1069 81.0706 65.547 81.0844 64.0032L81.1304 58.8734L81.1765 53.7436C81.1905 52.1852 81.2644 50.6141 81.1958 49.0567C81.1435 47.8684 80.9419 46.5994 80.1423 45.6656C79.2314 44.6018 77.7912 44.4582 76.4776 44.4163C73.0803 44.308 69.6824 44.2165 66.2849 44.1166C65.5032 44.0937 64.7193 44.0519 63.9372 44.0621C63.2417 44.0487 62.5491 44.1545 61.8895 44.3747C60.791 44.7845 59.9329 45.7675 59.9711 46.9866C59.9736 47.242 60.0301 47.4939 60.1371 47.726C60.244 47.9581 60.399 48.165 60.5918 48.3333C60.8849 48.5804 61.3116 48.1594 61.0161 47.9104C60.2154 47.2355 60.6032 45.9708 61.3032 45.3718C62.3173 44.504 63.9072 44.6448 65.1438 44.6811L74.7684 44.964C75.5148 44.9859 76.2633 44.9933 77.0089 45.037C77.6744 45.076 78.3695 45.1622 78.9652 45.4815C79.9952 46.0337 80.3972 47.1667 80.5326 48.2625C80.7028 49.6412 80.6003 51.0638 80.5879 52.4487L80.5441 57.3295L80.4574 66.9915C80.4469 68.1667 80.4651 69.3796 80.0682 70.5033C79.8977 71.0246 79.5854 71.4885 79.166 71.8435C78.6394 72.2243 78.0101 72.4387 77.3597 72.4589C76.6292 72.5176 75.8903 72.4891 75.1581 72.4884L72.6573 72.4857L67.8558 72.4806L65.355 72.4779C64.6243 72.4772 63.8882 72.5027 63.1584 72.4627C62.5983 72.432 61.9732 72.3355 61.5605 71.9203C61.0982 71.4553 61.0553 70.737 61.0341 70.1203C60.8131 63.6976 60.6967 57.2695 60.5282 50.8452L60.4655 48.4552C60.4555 48.0711 59.8553 48.0696 59.8654 48.4552L59.8654 48.4552Z" fill="#3F3D56"/>
<path d="M32.2129 75.2975C32.0031 75.0963 31.7449 74.9522 31.4631 74.8792C31.1813 74.8061 30.8853 74.8066 30.6037 74.8804C30.3239 74.9568 30.0646 75.0942 29.8444 75.2825C29.6243 75.4708 29.4488 75.7055 29.3306 75.9695C28.7635 77.1728 29.2715 78.5753 30.055 79.5579C30.7831 80.471 31.9659 81.0727 33.1181 80.5934C33.6431 80.3692 34.0842 79.9865 34.3792 79.4991C34.6742 79.0118 34.8082 78.4445 34.7623 77.8773C34.617 76.5412 33.5273 75.4591 32.2478 75.1328C31.8734 75.0373 31.7137 75.614 32.0882 75.7095C32.533 75.8168 32.9448 76.0308 33.2876 76.3329C33.6305 76.6349 33.8942 77.0159 34.0556 77.4426C34.1973 77.86 34.2034 78.3113 34.0731 78.7324C33.9428 79.1535 33.6828 79.5231 33.3298 79.7886C31.5413 81.157 29.4957 78.5406 29.6962 76.8287C29.7176 76.5761 29.7971 76.3318 29.9284 76.1147C30.0597 75.8976 30.2393 75.7135 30.4534 75.5767C30.6619 75.4544 30.9044 75.4024 31.1449 75.4283C31.3853 75.4542 31.6111 75.5566 31.7885 75.7204C31.8454 75.7733 31.9208 75.8022 31.9986 75.8009C32.0765 75.7996 32.1508 75.7682 32.2059 75.7133C32.2609 75.6585 32.2925 75.5844 32.2938 75.5068C32.2951 75.4292 32.2661 75.3542 32.2129 75.2975L32.2129 75.2975Z" fill="#3F3D56"/>
<path d="M68.8802 54.5428C68.1798 54.3028 67.3668 54.0644 66.642 54.3458C65.9584 54.6112 65.5818 55.2611 65.5078 55.9664C65.4252 56.753 65.7608 57.5032 66.1166 58.1841C66.5445 59.0033 66.9859 59.8157 67.4208 60.6312L68.925 63.4519C68.9593 63.5071 69.0105 63.5498 69.0711 63.5736C69.1316 63.5974 69.1983 63.6011 69.2611 63.5842C69.3239 63.5672 69.3796 63.5305 69.4198 63.4795C69.46 63.4284 69.4826 63.3659 69.4842 63.301C69.3993 62.3552 69.5499 61.4032 69.9228 60.5293C70.3075 59.646 70.9361 58.9001 71.383 58.0508C71.7944 57.269 72.0686 56.372 71.8507 55.4908C71.6744 54.7781 71.1542 54.0845 70.4046 53.9186C70.0258 53.8231 69.6252 53.8654 69.2749 54.0378C68.9245 54.2103 68.6474 54.5016 68.4934 54.8594C68.3518 55.2176 68.932 55.3729 69.0722 55.0184C69.2718 54.5134 69.9706 54.3586 70.4364 54.5518C71.0432 54.8036 71.331 55.5263 71.3303 56.1405C71.3293 56.9803 70.8976 57.7476 70.4595 58.4373C70.017 59.134 69.5519 59.8077 69.2578 60.5842C68.9334 61.4512 68.8058 62.379 68.8841 63.301L69.4433 63.1501C68.4665 61.3185 67.436 59.5054 66.5139 57.646C66.1593 56.9309 65.8404 55.9665 66.384 55.2532C66.9414 54.5219 68.0052 54.8743 68.7207 55.1195C69.0867 55.2449 69.2439 54.6674 68.8802 54.5428L68.8802 54.5428Z" fill="#3F3D56"/>
<path d="M30.6808 76.9682L31.5646 78.6762C31.5952 78.7258 31.6396 78.7656 31.6924 78.7906C31.7451 78.8157 31.8041 78.825 31.862 78.8174C31.92 78.8099 31.9745 78.7858 32.0191 78.7481C32.0636 78.7103 32.0963 78.6606 32.1131 78.6048C32.3433 77.4224 32.8949 76.3257 33.7077 75.4343C33.9678 75.1506 33.5445 74.7265 33.2833 75.0114C32.3965 75.9756 31.7916 77.1633 31.5343 78.4458L32.0828 78.3744L31.1991 76.6664C31.022 76.3242 30.5039 76.6264 30.6808 76.9682Z" fill="#3F3D56"/>
<path d="M40.7046 69.0833L33.7218 75.2287C33.6824 75.2633 33.6312 75.2816 33.5787 75.2798C33.5262 75.2779 33.4764 75.2561 33.4396 75.2187C33.4028 75.1814 33.3818 75.1314 33.3809 75.0791C33.38 75.0268 33.3992 74.9761 33.4347 74.9375L39.9409 67.8594L40.7046 69.0833Z" fill="#3F3D56"/>
<path d="M50.0137 143.873H52.7581L54.0643 133.325H50.0137V143.873Z" fill="#FFB6B6"/>
<path d="M48.5654 148.611H50.5336L50.885 146.76L51.7847 148.611H57.0049C57.2552 148.611 57.4988 148.532 57.7004 148.384C57.902 148.236 58.0508 148.028 58.1253 147.79C58.1998 147.552 58.1959 147.296 58.1143 147.061C58.0327 146.825 57.8776 146.621 57.6717 146.48L53.503 143.611V141.739L49.1183 142L48.5654 148.611Z" fill="#2F2E41"/>
<path d="M73.5225 143.873H76.2669L77.5731 133.325H73.5225V143.873Z" fill="#FFB6B6"/>
<path d="M72.0742 148.611H74.0424L74.3937 146.76L75.2935 148.611H80.5137C80.764 148.611 81.0076 148.532 81.2092 148.384C81.4107 148.236 81.5596 148.028 81.6341 147.79C81.7086 147.552 81.7047 147.296 81.6231 147.061C81.5415 146.825 81.3864 146.621 81.1805 146.48L77.0118 143.611V141.739L72.6271 142L72.0742 148.611Z" fill="#2F2E41"/>
<path d="M65.5907 87.9619L51.6712 86.4209C51.6712 86.4209 45.4848 94.4344 47.8047 101.369V109.091L49.506 139.279L53.7592 139.51L54.9965 125.795L56.1564 120.324L57.1334 99.481L62.1109 105.453L62.5749 107.764L64.1215 108.843L66.9827 112.761L72.8598 136.813L78.0392 136.89C78.0392 136.89 75.2571 111.925 74.9478 111.925C74.6384 111.925 66.9054 95.1278 66.9054 95.1278V94.239L66.596 92.5081C66.596 92.5081 67.3694 91.8916 67.06 91.5834C66.7507 91.2752 66.4414 90.3506 66.4414 90.3506L65.5907 87.9619Z" fill="#2F2E41"/>
<path d="M60.5642 66.4642L63.3481 69.5463L67.2147 70.9332L65.0494 83.5698L65.7676 87.2035L66.828 91.198C62.7419 93.4502 57.8883 90.3398 53.4293 88.9584L49.042 90.8898L49.274 85.5732L49.3929 72.1777C49.3975 71.6632 49.5082 71.1552 49.718 70.6851C49.9279 70.215 50.2325 69.7929 50.6129 69.4449C50.9933 69.097 51.4415 68.8307 51.9295 68.6626C52.4175 68.4945 52.935 68.4281 53.4498 68.4675L56.3884 66.3101L60.5642 66.4642Z"/>
<path d="M35.309 72.1169C35.331 72.3456 35.403 72.5666 35.52 72.7646C35.637 72.9625 35.7961 73.1325 35.9861 73.2625C36.1762 73.3925 36.3925 73.4794 36.6199 73.5171C36.8473 73.5548 37.0803 73.5424 37.3023 73.4807L40.494 78.0702L41.5791 75.3776L38.3819 71.4321C38.2531 71.0673 37.9945 70.7622 37.6551 70.5747C37.3157 70.3871 36.919 70.3301 36.5402 70.4146C36.1614 70.499 35.8269 70.7189 35.6 71.0326C35.3731 71.3464 35.2695 71.7322 35.309 72.1169Z" fill="#FFB8B8"/>
<path d="M52.0204 68.5335C52.0204 68.5335 47.866 68.3501 48.3312 76.5763L46.5639 80.19L43.0093 76.8845L42.9932 75.8323L39.9872 72.4844L37.5742 75.1422L39.1804 77.589L39.49 78.9556L40.4682 79.5509L43.0205 83.4392L44.2012 84.5971C44.2012 84.5971 45.699 86.0843 47.393 85.8602C47.845 85.8017 48.2849 85.6727 48.6968 85.4781C49.5026 85.0959 50.2988 84.4106 50.9682 83.2504C52.371 80.8544 53.6287 78.3769 54.7345 75.8312L52.0204 68.5335Z" />
<path d="M70.2073 59.2463C70.1439 59.4671 70.1299 59.6991 70.1662 59.926C70.2025 60.1528 70.2882 60.3689 70.4174 60.5592C70.5466 60.7494 70.7161 60.9091 70.914 61.027C71.1118 61.1449 71.3332 61.2182 71.5625 61.2416L72.85 66.6759L74.8476 64.5647L73.3188 59.7279C73.3328 59.3414 73.204 58.9633 72.9568 58.6651C72.7097 58.3669 72.3613 58.1694 71.9778 58.11C71.5943 58.0507 71.2022 58.1335 70.8759 58.343C70.5496 58.5524 70.3117 58.8738 70.2073 59.2463V59.2463Z" fill="#FFB8B8"/>
<path d="M61.3662 70.2009C61.3662 70.2009 63.5629 66.6827 70.11 71.7155L74.1006 72.3058L73.3737 67.5156L72.5117 66.9075L71.4395 62.5442L75.0039 62.0635L76.1215 64.7668L77.0778 65.7938L77.0176 66.9344L78.7936 71.2303L79.0848 72.8553C79.0848 72.8553 79.4692 74.927 78.3261 76.1927C78.0221 76.5311 77.6666 76.8198 77.2727 77.0483C76.5007 77.4946 75.4833 77.7615 74.1444 77.6558C71.3679 77.4543 68.6059 77.0875 65.8733 76.5572L61.3662 70.2009Z"/>
<path d="M61.0558 65.1793C63.652 63.7653 64.6061 60.5219 63.1869 57.9351C61.7678 55.3483 58.5127 54.3976 55.9166 55.8117C53.3204 57.2257 52.3663 60.4691 53.7855 63.0559C55.2046 65.6427 58.4597 66.5934 61.0558 65.1793Z" fill="#FFB6B6"/>
<path d="M65.5351 58.6539C65.5191 58.6599 65.5051 58.6659 65.4891 58.6718C65.4585 58.6852 65.4271 58.6965 65.395 58.7057C65.1905 58.78 64.9775 58.8282 64.7608 58.8493C64.6685 58.859 64.5756 58.8636 64.4828 58.8632C64.3636 58.8633 64.2447 58.8553 64.1267 58.8393C63.9954 58.8229 63.8656 58.7963 63.7385 58.7596C63.6782 58.7433 63.6188 58.724 63.5605 58.7017C63.1631 58.56 62.8042 58.3283 62.5119 58.025C62.2196 57.7216 62.0019 57.3549 61.876 56.9535V56.9515C61.8625 56.9123 61.8512 56.8723 61.8419 56.8319C61.783 56.6074 61.7535 56.3762 61.7539 56.1442V56.1402C61.7538 55.5743 61.9323 55.0227 62.2641 54.5634C62.4641 54.2823 62.6945 54.2358 62.5662 53.9135C62.1567 52.8854 63.8447 52.05 64.8389 52.5042C64.8748 52.5009 64.9108 52.4995 64.9469 52.5002C65.6171 52.5002 65.8632 53.4869 66.2613 54.0431L66.2497 54.0468C66.1485 54.0819 66.0607 54.1476 65.9988 54.2347C65.9368 54.3219 65.9038 54.4262 65.9042 54.533C65.9047 54.6398 65.9386 54.7438 66.0013 54.8305C66.064 54.9171 66.1522 54.9821 66.2538 55.0163C66.5196 55.1033 66.7882 55.1803 67.0596 55.2471C67.9524 56.3033 66.918 59.3839 65.5351 58.6539Z" fill="#2F2E41"/>
<path d="M65.0353 61.4785C64.7372 62.6008 64.189 63.6952 63.2827 64.4228C62.3744 65.1504 58.1071 66.8687 57.751 65.3876C57.9891 66.4222 57.843 66.8169 57.4549 67.1857C57.3889 67.096 57.3188 67.0103 57.2468 66.9265C56.9815 66.6204 56.663 66.3645 56.3065 66.171C56.2957 66.7955 56.3392 67.4198 56.4366 68.0369C56.2767 68.1831 56.1244 68.3375 55.9804 68.4993C55.2962 66.4501 53.7913 63.9939 54.8901 62.1323C55.3262 61.3935 54.9644 61.2913 54.58 61.2054C53.909 61.0554 53.5457 58.3089 53.3876 57.6411C53.1916 56.8039 53.1155 55.8411 53.6377 55.1553C54.1599 54.4696 55.4763 54.4437 55.7404 55.263L56.2965 54.5135C57.0168 52.9446 58.9173 53.2636 60.6359 53.4709C62.3544 53.6762 63.8689 54.8842 64.6391 56.4291C65.4074 57.9741 65.4774 59.81 65.0353 61.4785Z" fill="#2F2E41"/>
<path d="M62.3429 54.2973C62.304 55.2443 62.5453 56.1818 63.0368 56.9933C63.5283 57.8048 64.2483 58.4545 65.1073 58.8616C65.4561 59.0202 65.7615 58.5049 65.4102 58.3453C64.6427 57.9901 63.9983 57.4157 63.5591 56.695C63.1198 55.9742 62.9054 55.1397 62.9431 54.2973C62.9641 53.9127 62.3639 53.9139 62.3429 54.2973Z" fill="#FD6584"/>
<path d="M38.787 145.018C38.6803 145.023 38.5746 144.995 38.4843 144.938C38.3939 144.881 38.3234 144.798 38.2822 144.699C38.2409 144.601 38.231 144.493 38.2537 144.388C38.2765 144.284 38.3307 144.19 38.4092 144.118L38.445 143.976C38.4402 143.965 38.4355 143.953 38.4308 143.942C37.9508 142.802 34.8885 145.98 34.7561 147.052C34.6978 147.526 34.7224 148.006 34.8288 148.471C33.8368 146.315 33.3217 143.972 33.3184 141.6C33.3182 141.005 33.3514 140.41 33.4178 139.819C33.4727 139.334 33.5489 138.852 33.6463 138.374C34.178 135.781 35.3195 133.35 36.9771 131.281C37.9251 131.334 38.7559 131.19 38.8361 129.36C38.8504 129.034 39.0928 128.752 39.1462 128.431C39.0557 128.443 38.9637 128.45 38.8732 128.456C38.845 128.458 38.8154 128.459 38.7872 128.461L38.7765 128.461C38.6771 128.466 38.5784 128.441 38.4925 128.391C38.4066 128.341 38.337 128.267 38.2922 128.179C38.2474 128.09 38.2292 127.991 38.2399 127.892C38.2506 127.793 38.2896 127.7 38.3524 127.623C38.3914 127.575 38.4305 127.527 38.4697 127.479C38.529 127.405 38.5898 127.333 38.6492 127.259C38.656 127.252 38.6625 127.244 38.6685 127.237C38.7367 127.152 38.805 127.07 38.8732 126.985C38.7486 126.793 38.5811 126.631 38.3836 126.514C37.6996 126.115 36.756 126.391 36.262 127.008C35.7664 127.624 35.673 128.489 35.8451 129.259C36.0143 129.914 36.2943 130.536 36.673 131.098C36.6359 131.145 36.5973 131.191 36.5602 131.238C35.8822 132.107 35.2912 133.04 34.7958 134.024C34.936 132.933 33.222 128.993 32.5592 128.159C31.763 127.156 30.1304 127.594 29.9901 128.864C29.9887 128.877 29.9874 128.889 29.9861 128.901C30.0846 128.957 30.181 129.015 30.2752 129.077C30.3937 129.156 30.4855 129.269 30.5386 129.401C30.5917 129.532 30.6036 129.677 30.5728 129.816C30.542 129.954 30.4698 130.08 30.3659 130.177C30.2619 130.274 30.131 130.338 29.9902 130.36L29.9757 130.362C28.6579 132.237 32.8826 137.116 33.9401 136.021C33.4423 137.426 33.1301 138.89 33.0113 140.376C32.944 141.252 32.948 142.133 33.0232 143.009L33.0187 142.978C32.7838 141.07 28.7529 138.234 27.5758 138.47C26.8977 138.606 26.2299 138.575 26.3328 139.257C26.3345 139.268 26.3361 139.279 26.3378 139.289C26.5205 139.364 26.6984 139.449 26.8705 139.545C26.9689 139.6 27.0653 139.659 27.1596 139.721C27.278 139.8 27.3698 139.913 27.4229 140.045C27.476 140.176 27.4879 140.321 27.4571 140.46C27.4263 140.598 27.3542 140.724 27.2502 140.821C27.1463 140.918 27.0153 140.982 26.8745 141.003L26.8601 141.006C26.8497 141.007 26.8408 141.009 26.8304 141.01C26.2305 143.067 30.6792 146.386 33.3837 145.33H33.3852C33.6532 146.49 34.0415 147.62 34.5439 148.7H38.6833C38.6981 148.655 38.7115 148.607 38.7248 148.561C38.3417 148.585 37.957 148.563 37.5795 148.493C37.8866 148.118 38.1937 147.739 38.5008 147.364C38.5077 147.357 38.5141 147.35 38.5201 147.342C38.6759 147.15 38.8331 146.959 38.9889 146.767L38.989 146.766C38.9973 146.177 38.9295 145.59 38.7871 145.018L38.787 145.018ZM34.0469 135.727L34.0491 135.724L34.0469 135.73V135.727ZM33.13 143.962L33.0944 143.883C33.0959 143.825 33.0959 143.767 33.0944 143.708C33.0944 143.692 33.0914 143.676 33.0914 143.659C33.1048 143.761 33.1166 143.863 33.1315 143.965L33.13 143.962Z" fill="#FD6584"/>
<path d="M84.7963 148.602H26.3545V149H84.7963V148.602Z" fill="#CCCCCC"/>
<path d="M162.026 39.9703L162.021 39.9745C161.565 39.5125 160.948 39.2429 160.298 39.2216C159.648 39.2003 159.015 39.4289 158.53 39.8601C158.044 40.2913 157.744 40.892 157.691 41.5378C157.638 42.1836 157.836 42.825 158.245 43.3291L158.24 43.3333L161.615 47.1054L165.401 43.7423C165.65 43.5216 165.853 43.2541 165.998 42.9553C166.143 42.6564 166.228 42.332 166.247 42.0005C166.266 41.669 166.219 41.3371 166.11 41.0235C166 40.71 165.83 40.4211 165.608 40.1732C165.386 39.9254 165.118 39.7236 164.817 39.5793C164.517 39.4349 164.192 39.3509 163.859 39.3321C163.526 39.3132 163.193 39.3599 162.879 39.4694C162.564 39.5789 162.274 39.7491 162.026 39.9702L162.026 39.9703Z" fill="#FD6584"/>
<g opacity="0.1">
<path fill-rule="evenodd" clip-rule="evenodd" d="M177.616 144.146H177.93V143.453C178.009 143.464 178.066 143.464 178.1 143.464C178.122 143.464 178.19 143.464 178.247 143.453L178.665 144.146H179.037L178.552 143.385C178.766 143.294 178.901 143.068 178.901 142.817C178.901 142.5 178.653 142.228 178.122 142.228C177.93 142.228 177.773 142.239 177.616 142.262V144.146ZM177.93 142.522C177.987 142.511 178.077 142.511 178.156 142.511C178.417 142.511 178.575 142.636 178.575 142.829C178.575 143.068 178.417 143.205 178.134 143.205C178.077 143.205 178.009 143.205 177.93 143.193V142.522ZM178.213 144.886C177.333 144.886 176.621 144.112 176.621 143.216C176.621 142.285 177.333 141.534 178.213 141.534C179.104 141.534 179.817 142.285 179.817 143.216C179.817 144.112 179.104 144.886 178.213 144.886ZM178.213 145.156C179.274 145.156 180.12 144.271 180.12 143.216C180.12 142.137 179.274 141.251 178.213 141.251C177.152 141.251 176.317 142.126 176.317 143.216C176.317 144.283 177.163 145.156 178.213 145.156Z"/>
<path fill-rule="evenodd" clip-rule="evenodd" d="M185.787 108.334C184.811 106.108 183.505 104.113 181.752 102.448C173.956 95.036 161.408 98.1892 157.676 108.49C156.866 110.727 156.443 113.034 156.446 115.429C156.462 125.834 156.453 136.239 156.453 146.643C156.453 148.412 156.453 148.412 154.552 148.305C154.532 147.965 154.494 147.608 154.494 147.251C154.489 135.495 154.472 123.74 154.496 111.984C154.512 104.181 158.708 97.8745 165.481 95.4085C166.297 95.1112 167.151 94.9006 168.003 94.7297C168.848 94.5588 169.713 94.4908 170.573 94.3764C169.518 89.5063 160.711 83.8491 153.56 83.5801C145.198 83.2647 138.074 88.6596 135.329 94.374C136.143 94.4763 136.935 94.5341 137.713 94.6785C144.899 96.012 150.172 101.516 151.203 108.801C151.388 110.101 151.497 111.422 151.5 112.735C151.523 124.221 151.505 135.706 151.528 147.191C151.531 148.096 151.32 148.476 150.348 148.365C149.629 148.282 149.484 147.968 149.488 147.319C149.511 143.67 149.499 140.022 149.499 136.373C149.499 129.145 149.563 121.915 149.475 114.686C149.422 110.369 148.088 106.421 145.154 103.194C138.919 96.3322 126.42 96.1288 120.811 107.102C120.587 107.54 120.387 107.99 120.077 108.641C122.751 92.7252 137.22 80.7163 153.339 81.0051C170.684 81.3156 183.253 93.9576 185.787 108.334Z"/>
<path fill-rule="evenodd" clip-rule="evenodd" d="M164.438 146.352C164.402 146.022 164.354 145.794 164.354 145.563C164.361 139.417 164.318 133.268 164.407 127.122C164.448 124.111 165.255 121.28 167.532 119.139C170.457 116.391 173.944 116.108 177.479 117.492C180.99 118.869 182.775 121.765 183.025 125.503C183.287 129.399 181.615 132.646 179.279 135.598C175.566 140.292 170.936 143.765 165.422 146.046C165.123 146.17 164.804 146.24 164.438 146.352Z"/>
<path fill-rule="evenodd" clip-rule="evenodd" d="M141.526 146.593C139.356 145.466 137.305 144.554 135.41 143.386C131.058 140.704 127.41 137.244 124.809 132.786C123.375 130.326 122.567 127.649 123.015 124.745C123.715 120.211 127.098 117.019 131.369 116.807C136.406 116.554 139.917 119.062 141.099 123.876C141.419 125.173 141.584 126.541 141.596 127.877C141.649 133.685 141.619 139.494 141.616 145.301C141.615 145.624 141.573 145.946 141.526 146.593Z" />
<path fill-rule="evenodd" clip-rule="evenodd" d="M146.501 147.65C144.832 147.738 144.602 147.539 144.602 146.036C144.601 137.727 144.601 129.417 144.601 121.108C144.601 116.151 142.143 112.237 137.997 110.591C133.154 108.669 127.805 109.738 124.491 113.239C122.005 115.866 121.142 119.085 120.967 122.581C120.95 122.915 120.925 123.249 120.697 123.624C120.521 122.787 120.293 121.954 120.175 121.108C119.706 117.73 120.136 114.516 121.974 111.569C123.247 109.53 124.948 107.994 127.21 107.175C132.067 105.415 136.841 105.578 141.421 108.065C144.786 109.892 146.511 112.872 146.539 116.666C146.614 126.799 146.566 136.934 146.563 147.069C146.563 147.265 146.522 147.461 146.501 147.65Z"/>
<path fill-rule="evenodd" clip-rule="evenodd" d="M159.376 147.695V146.439C159.376 137.084 159.476 127.727 159.344 118.374C159.237 110.789 163.446 107.534 169.378 106.334C172.396 105.722 175.403 105.956 178.307 106.998C183.302 108.791 186.307 113.708 185.945 119.505C185.855 120.93 185.555 122.342 185.233 123.717C184.95 121.959 184.828 120.155 184.356 118.449C181.864 109.411 172.082 107.611 165.918 111.721C162.712 113.861 161.381 117.144 161.369 120.949C161.342 129.257 161.362 137.566 161.36 145.874C161.36 147.583 161.315 147.628 159.376 147.695Z"/>
</g>
</svg>
