<svg width="16" height="16" viewBox="0 0 16 16" fill="none" xmlns="http://www.w3.org/2000/svg">
<path fill-rule="evenodd" clip-rule="evenodd" d="M13 11.2998H4.30026C3.99997 11.2998 3.70016 11.0996 3.70016 10.7998L2.10006 4.2998L0.499967 2.3999C0.451139 2.35059 0.414029 2.30176 0.387662 2.25098C0.306119 2.0957 0.324674 1.92627 0.400357 1.69971C0.499967 1.5 0.700162 1.2998 0.999967 1.2998H2.20016C2.33346 1.2998 2.46725 1.33936 2.57419 1.41016C2.70797 1.49805 2.80026 1.6333 2.80026 1.7998L3.20016 3.2998H14.7002C14.9004 3.2998 15.1001 3.3999 15.2002 3.59961C15.3003 3.7998 15.4004 4 15.3003 4.19971L13.6001 10.8999C13.6001 11.0996 13.3003 11.2998 13 11.2998ZM13 11.2998C14 11.2998 14.6997 12 14.6997 13C14.6997 14 13.8999 14.6997 13 14.6997C12.0996 14.6997 11.2998 14 11.2998 13C11.2998 12 12 11.2998 13 11.2998ZM4.30026 11.2998C3.30026 11.2998 2.60006 12 2.60006 13C2.60006 14 3.39987 14.6997 4.30026 14.6997C5.30026 14.6997 5.99997 13.8999 5.99997 13C5.99997 12.0996 5.30026 11.2998 4.30026 11.2998ZM4.90036 10H12.5L13.8003 4.69971H3.49997L4.90036 10ZM4.30026 12.6997C4.20016 12.6997 3.99997 12.7998 3.99997 13C3.99997 13.1997 4.10006 13.2998 4.30026 13.2998C4.4194 13.2998 4.5029 13.2642 4.55075 13.1934C4.57077 13.1636 4.58493 13.1274 4.59274 13.085C4.59762 13.0591 4.60006 13.0308 4.60006 13C4.60006 12.7998 4.49997 12.6997 4.30026 12.6997ZM12.6997 13C12.6997 12.7998 12.7998 12.6997 13 12.6997C13.1997 12.6997 13.2998 12.7998 13.2998 13C13.2998 13.1997 13.1997 13.2998 13 13.2998C12.7998 13.2998 12.6997 13.1997 12.6997 13ZM7.99997 8H7.30026C7.1484 8 6.99655 7.92334 6.88376 7.79541C6.7734 7.67041 6.70016 7.49756 6.70016 7.30029C6.70016 6.90039 6.99997 6.7002 7.30026 6.7002H7.99997V6C7.99997 5.82617 8.05661 5.6709 8.15378 5.55127C8.27975 5.39551 8.4736 5.2998 8.70016 5.2998C9.10006 5.2998 9.29977 5.59961 9.29977 6V6.7002H9.99997C10.1259 6.7002 10.2422 6.72998 10.3423 6.7832C10.5595 6.89941 10.7002 7.12598 10.7002 7.40039C10.7002 7.63037 10.601 7.79443 10.4404 7.89209C10.3217 7.96387 10.1699 8 9.99997 8H9.29977V8.69971C9.29977 9 8.99997 9.2998 8.70016 9.2998C8.29977 9.2998 7.99997 9 7.99997 8.69971V8Z" />
</svg>
