<svg width="100" height="21" viewBox="0 0 100 21" fill="none" xmlns="http://www.w3.org/2000/svg">
<path fill-rule="evenodd" clip-rule="evenodd" d="M16.9473 1H13.6178L13.6906 2.57561H4.76897L1.72117 18.1271L0 20.9448H3.53292L5.22868 18.1271L7.74038 5.31052H25.4049L25.9408 2.57561H17.0197L16.9473 1ZM15.2864 10.2536H23.8774L24.4134 7.51868H15.8224L16.0876 6.16618H12.7834L11.6143 12.1328H6.98837L5.25091 21H19.5352C19.9168 20.9984 20.2947 20.918 20.6487 20.7631C21.0174 20.608 21.3605 20.3889 21.6646 20.1144C21.9738 19.8374 22.2432 19.5118 22.464 19.1484C22.6857 18.7881 22.8423 18.3853 22.9256 17.9615L24.0686 12.1328H14.9184L15.2864 10.2536ZM19.5017 17.4071C19.4549 17.6482 19.3318 17.8639 19.154 18.0167C18.9851 18.1757 18.7694 18.2638 18.5459 18.2651H9.31973L9.99089 14.8401H20.005L19.5017 17.4071ZM49.6881 5.77977L50.2185 3.07246H40.611L40.427 1.0276H37.2753L37.4594 3.07246H28.4619L27.9312 5.77977H37.2338L36.3948 10.0604H27.6514L27.121 12.7677H35.8644L34.7928 18.2375H25.4902L24.9596 20.9448H46.7165L47.2471 18.2375H37.9446L39.0162 12.7677H47.7596L48.2899 10.0604H39.5466L40.3855 5.77977H49.6881ZM50.1231 17.0483H52.1056L51.8891 18.1547C51.8444 18.3895 51.7314 18.6024 51.5668 18.7619C51.4172 18.9193 51.2178 19.0082 51.0097 19.0103H50.5513L49.5624 20.9448H52.6123C52.9199 20.9434 53.2238 20.8721 53.5045 20.7355C53.7941 20.5974 54.0621 20.4112 54.299 20.1835C54.544 19.9465 54.7562 19.6723 54.9289 19.3692C55.109 19.0555 55.2371 18.7098 55.3071 18.3479L56.4005 12.7677L58.5678 9.61874H57.0175L57.8457 5.39333H58.8114L59.3418 2.68602H58.3761L58.701 1.0276H55.2451L54.9202 2.68602H52.9376L52.4072 5.39333H54.3898L52.896 13.0161L50.1231 17.0483ZM61.135 20.7769L64.0687 5.80737H63.3563L66.1465 1.16561H62.7425L58.2256 8.65268H60.2843L57.9081 20.7769H61.136H61.135ZM65.2125 5.80737H68.0338L67.5258 8.40425H65.0594L64.5885 10.8056H67.0541L66.5461 13.4025H64.0797L63.6088 15.8062H66.0743L65.571 18.3755H62.7497L62.2787 20.7769H71.6575L72.1284 18.3755H69.3071L69.8106 15.8062H72.276L72.7469 13.4025H70.2816L70.7895 10.8056H73.2549L73.7258 8.40425H71.2613L71.7693 5.80737H74.5906L75.0615 3.40367H71.9359L71.9043 1.35881H68.4222L68.4537 3.40367H65.6845L65.2125 5.80737ZM97.9552 1.1104H94.1675L93.4934 2.21677H84.4704L84.2549 1.1104H80.4422L80.6833 2.21677H77.7349L77.3453 4.20413H81.0814L82.5 4.5L85.0507 5.08741L84.8681 4.20413H92.3153L91.7862 5.08741H95.5735L96.1026 4.20413H99.6104L100 2.21677H97.2805L97.9552 1.1104ZM80.3069 5.69694L79.7833 6.55262H76.7579L76.2923 8.92869H78.3511L75.753 13.2369H77.9896L76.4957 20.8597H79.8506L81.8751 10.5296H80.9093L81.884 8.92869H98.5834L99.049 6.55262H83.3152L83.8134 5.69694H80.3069ZM97.6515 14.203H94.7286L97.1518 12.2156L97.5901 9.97758H83.4068L82.9623 12.2433H92.9767L90.585 14.203H81.8416L81.4033 16.4411H89.4603L89.114 18.2099C89.0746 18.4117 88.9718 18.5922 88.8232 18.7205C88.6811 18.8536 88.4999 18.9271 88.3123 18.9275H83.5078L82.3155 20.8597H89.4832C89.805 20.8608 90.1241 20.7952 90.4233 20.6665C90.7265 20.5398 91.0098 20.3629 91.2632 20.142C91.5185 19.9208 91.7381 19.655 91.9132 19.3554C92.0896 19.0556 92.215 18.7236 92.2831 18.3755L92.662 16.4411H97.2125L97.6515 14.203Z" fill="#404040"/>
<path fill-rule="evenodd" clip-rule="evenodd" d="M80.1129 1.78125C80.1129 1.78125 79.9365 2.34375 80.0247 2.8125C80.1129 3.46875 80.554 4.21875 81.9655 4.6875L86.0236 6C86.0236 4.21875 85.5825 2.625 84.6121 1.21875C83.9064 0.28125 83.1124 0 82.4948 0C81.7009 0 80.554 0.375 80.1129 1.78125Z" fill="" />
</svg>
