<svg width="36" height="24" viewBox="0 0 36 24" fill="none" xmlns="http://www.w3.org/2000/svg">
<mask id="mask0_3269_24611" style="mask-type:alpha" maskUnits="userSpaceOnUse" x="0" y="0" width="36" height="24">
<rect width="36" height="24" rx="4" fill="white"/>
</mask>
<g mask="url(#mask0_3269_24611)">
<g opacity="0.2">
<path d="M9.75 28.5H26.25L30.75 12.75L23.25 16.5L18 6L12.75 16.5L5.25 12.75L9.75 28.5Z" stroke="#7340B3" stroke-linecap="round" stroke-linejoin="round"/>
<path d="M5.25 12.75C6.49264 12.75 7.5 11.7426 7.5 10.5C7.5 9.25736 6.49264 8.25 5.25 8.25C4.00736 8.25 3 9.25736 3 10.5C3 11.7426 4.00736 12.75 5.25 12.75Z"  stroke="#7340B3" stroke-width="1.33333"/>
<path d="M18 6C19.2426 6 20.25 4.99264 20.25 3.75C20.25 2.50736 19.2426 1.5 18 1.5C16.7574 1.5 15.75 2.50736 15.75 3.75C15.75 4.99264 16.7574 6 18 6Z"  stroke="#7340B3" stroke-width="1.33333"/>
<path d="M30.75 12.75C31.9926 12.75 33 11.7426 33 10.5C33 9.25736 31.9926 8.25 30.75 8.25C29.5074 8.25 28.5 9.25736 28.5 10.5C28.5 11.7426 29.5074 12.75 30.75 12.75Z"   stroke="#7340B3" stroke-width="1.33333"/>
<path d="M9.74951 28.5H26.2495L30.7495 12.75L23.2495 16.5L17.9995 6L12.7495 16.5L5.24951 12.75L9.74951 28.5Z"  />
<path d="M5.24951 12.75C6.49215 12.75 7.49951 11.7426 7.49951 10.5C7.49951 9.25736 6.49215 8.25 5.24951 8.25C4.00687 8.25 2.99951 9.25736 2.99951 10.5C2.99951 11.7426 4.00687 12.75 5.24951 12.75Z"  />
<path d="M17.9995 6C19.2422 6 20.2496 4.99264 20.2496 3.75C20.2496 2.50736 19.2423 1.5 17.9996 1.5C16.757 1.5 15.7496 2.50736 15.7496 3.75C15.7496 4.99264 16.7569 6 17.9995 6Z"  />
<path d="M30.7495 12.75C31.9922 12.75 32.9998 11.7426 32.9998 10.5C32.9998 9.25736 31.9924 8.25 30.7498 8.25C29.5071 8.25 28.4998 9.25736 28.4998 10.5C28.4998 11.7426 29.5069 12.75 30.7495 12.75Z"  />
<path d="M9.74951 28.5L9.1085 28.6831C9.19027 28.9693 9.45186 29.1667 9.74951 29.1667V28.5ZM26.2495 28.5V29.1667C26.5472 29.1667 26.8088 28.9693 26.8905 28.6831L26.2495 28.5ZM23.2495 16.5L22.6532 16.7981C22.7323 16.9563 22.871 17.0765 23.0387 17.1325C23.2064 17.1884 23.3895 17.1754 23.5477 17.0963L23.2495 16.5ZM12.7495 16.5L12.4514 17.0963C12.6095 17.1754 12.7926 17.1884 12.9603 17.1325C13.1281 17.0765 13.2667 16.9563 13.3458 16.7981L12.7495 16.5ZM9.74951 29.1667H26.2495V27.8333H9.74951V29.1667ZM26.8905 28.6831L31.3905 12.9331L30.1085 12.5669L25.6085 28.3169L26.8905 28.6831ZM30.4514 12.1537L22.9514 15.9037L23.5477 17.0963L31.0477 13.3463L30.4514 12.1537ZM23.8458 16.2019L18.5958 5.70186L17.4032 6.29814L22.6532 16.7981L23.8458 16.2019ZM17.4032 5.70186L12.1532 16.2019L13.3458 16.7981L18.5958 6.29814L17.4032 5.70186ZM13.0477 15.9037L5.54765 12.1537L4.95137 13.3463L12.4514 17.0963L13.0477 15.9037ZM4.6085 12.9331L9.1085 28.6831L10.3905 28.3169L5.89053 12.5669L4.6085 12.9331ZM6.83284 10.5C6.83284 11.3745 6.12396 12.0833 5.24951 12.0833V13.4167C6.86034 13.4167 8.16618 12.1108 8.16618 10.5H6.83284ZM5.24951 12.0833C4.37506 12.0833 3.66618 11.3745 3.66618 10.5H2.33285C2.33285 12.1108 3.63868 13.4167 5.24951 13.4167V12.0833ZM3.66618 10.5C3.66618 9.62555 4.37506 8.91667 5.24951 8.91667V7.58333C3.63868 7.58333 2.33285 8.88917 2.33285 10.5H3.66618ZM5.24951 8.91667C6.12396 8.91667 6.83284 9.62555 6.83284 10.5H8.16618C8.16618 8.88917 6.86034 7.58333 5.24951 7.58333V8.91667ZM19.583 3.75C19.583 4.6244 18.874 5.33333 17.9995 5.33333V6.66667C19.6103 6.66667 20.9163 5.36088 20.9163 3.75H19.583ZM17.9995 5.33333C17.1251 5.33333 16.4163 4.6245 16.4163 3.75H15.083C15.083 5.36078 16.3886 6.66667 17.9995 6.66667V5.33333ZM16.4163 3.75C16.4163 2.87555 17.1252 2.16667 17.9996 2.16667V0.833333C16.3888 0.833333 15.083 2.13917 15.083 3.75H16.4163ZM17.9996 2.16667C18.8741 2.16667 19.583 2.87555 19.583 3.75H20.9163C20.9163 2.13917 19.6105 0.833333 17.9996 0.833333V2.16667ZM32.3331 10.5C32.3331 11.3743 31.6241 12.0833 30.7495 12.0833V13.4167C32.3602 13.4167 33.6664 12.1109 33.6664 10.5H32.3331ZM30.7495 12.0833C29.8752 12.0833 29.1664 11.3746 29.1664 10.5H27.8331C27.8331 12.1107 29.1386 13.4167 30.7495 13.4167V12.0833ZM29.1664 10.5C29.1664 9.62555 29.8753 8.91667 30.7498 8.91667V7.58333C29.1389 7.58333 27.8331 8.88917 27.8331 10.5H29.1664ZM30.7498 8.91667C31.6242 8.91667 32.3331 9.62555 32.3331 10.5H33.6664C33.6664 8.88917 32.3606 7.58333 30.7498 7.58333V8.91667Z"  />
<g style="mix-blend-mode:lighten" opacity="0.4">
<path d="M0 -3H18V33H0V-3Z" fill="white"/>
</g>
</g>
</g>
</svg>
