<svg width="36" height="24" viewBox="0 0 36 24" fill="none" xmlns="http://www.w3.org/2000/svg">
<mask id="mask0_3269_24645" style="mask-type:alpha" maskUnits="userSpaceOnUse" x="0" y="0" width="36" height="24">
<rect width="36" height="24" rx="4" fill="white"/>
</mask>
<g mask="url(#mask0_3269_24645)">
<g opacity="0.2">
<path d="M9.75 28.5H26.25L30.75 12.75L23.25 16.5L18 6L12.75 16.5L5.25 12.75L9.75 28.5Z" fill="#7340B3" stroke="#7340B3" stroke-linecap="round" stroke-linejoin="round"/>
<path d="M5.25 12.75C6.49264 12.75 7.5 11.7426 7.5 10.5C7.5 9.25736 6.49264 8.25 5.25 8.25C4.00736 8.25 3 9.25736 3 10.5C3 11.7426 4.00736 12.75 5.25 12.75Z" fill="#7340B3" stroke="#7340B3" stroke-width="1.33333"/>
<path d="M18 6C19.2426 6 20.25 4.99264 20.25 3.75C20.25 2.50736 19.2426 1.5 18 1.5C16.7574 1.5 15.75 2.50736 15.75 3.75C15.75 4.99264 16.7574 6 18 6Z" fill="#7340B3" stroke="#7340B3" stroke-width="1.33333"/>
<path d="M30.75 12.75C31.9926 12.75 33 11.7426 33 10.5C33 9.25736 31.9926 8.25 30.75 8.25C29.5074 8.25 28.5 9.25736 28.5 10.5C28.5 11.7426 29.5074 12.75 30.75 12.75Z" fill="#7340B3" stroke="#7340B3" stroke-width="1.33333"/>
<path d="M9.74902 28.5H26.249L30.749 12.75L23.249 16.5L17.999 6L12.749 16.5L5.24902 12.75L9.74902 28.5Z" fill="#7340B3"/>
<path d="M5.24902 12.75C6.49166 12.75 7.49902 11.7426 7.49902 10.5C7.49902 9.25736 6.49166 8.25 5.24902 8.25C4.00638 8.25 2.99902 9.25736 2.99902 10.5C2.99902 11.7426 4.00638 12.75 5.24902 12.75Z" fill="#7340B3"/>
<path d="M17.999 6C19.2417 6 20.2492 4.99264 20.2492 3.75C20.2492 2.50736 19.2418 1.5 17.9992 1.5C16.7565 1.5 15.7492 2.50736 15.7492 3.75C15.7492 4.99264 16.7564 6 17.999 6Z" fill="#7340B3"/>
<path d="M30.749 12.75C31.9917 12.75 32.9993 11.7426 32.9993 10.5C32.9993 9.25736 31.9919 8.25 30.7493 8.25C29.5066 8.25 28.4993 9.25736 28.4993 10.5C28.4993 11.7426 29.5064 12.75 30.749 12.75Z" fill="#7340B3"/>
<path d="M9.74902 28.5L9.10801 28.6831C9.18978 28.9693 9.45137 29.1667 9.74902 29.1667V28.5ZM26.249 28.5V29.1667C26.5467 29.1667 26.8083 28.9693 26.89 28.6831L26.249 28.5ZM23.249 16.5L22.6527 16.7981C22.7318 16.9563 22.8705 17.0765 23.0382 17.1325C23.2059 17.1884 23.389 17.1754 23.5472 17.0963L23.249 16.5ZM12.749 16.5L12.4509 17.0963C12.609 17.1754 12.7921 17.1884 12.9598 17.1325C13.1276 17.0765 13.2662 16.9563 13.3453 16.7981L12.749 16.5ZM9.74902 29.1667H26.249V27.8333H9.74902V29.1667ZM26.89 28.6831L31.39 12.9331L30.108 12.5669L25.608 28.3169L26.89 28.6831ZM30.4509 12.1537L22.9509 15.9037L23.5472 17.0963L31.0472 13.3463L30.4509 12.1537ZM23.8453 16.2019L18.5953 5.70186L17.4027 6.29814L22.6527 16.7981L23.8453 16.2019ZM17.4027 5.70186L12.1527 16.2019L13.3453 16.7981L18.5953 6.29814L17.4027 5.70186ZM13.0472 15.9037L5.54717 12.1537L4.95088 13.3463L12.4509 17.0963L13.0472 15.9037ZM4.60801 12.9331L9.10801 28.6831L10.39 28.3169L5.89004 12.5669L4.60801 12.9331ZM6.83236 10.5C6.83236 11.3745 6.12347 12.0833 5.24902 12.0833V13.4167C6.85985 13.4167 8.16569 12.1108 8.16569 10.5H6.83236ZM5.24902 12.0833C4.37457 12.0833 3.66569 11.3745 3.66569 10.5H2.33236C2.33236 12.1108 3.63819 13.4167 5.24902 13.4167V12.0833ZM3.66569 10.5C3.66569 9.62555 4.37457 8.91667 5.24902 8.91667V7.58333C3.63819 7.58333 2.33236 8.88917 2.33236 10.5H3.66569ZM5.24902 8.91667C6.12347 8.91667 6.83236 9.62555 6.83236 10.5H8.16569C8.16569 8.88917 6.85985 7.58333 5.24902 7.58333V8.91667ZM19.5825 3.75C19.5825 4.6244 18.8735 5.33333 17.999 5.33333V6.66667C19.6098 6.66667 20.9158 5.36088 20.9158 3.75H19.5825ZM17.999 5.33333C17.1246 5.33333 16.4158 4.6245 16.4158 3.75H15.0825C15.0825 5.36078 16.3881 6.66667 17.999 6.66667V5.33333ZM16.4158 3.75C16.4158 2.87555 17.1247 2.16667 17.9992 2.16667V0.833333C16.3883 0.833333 15.0825 2.13917 15.0825 3.75H16.4158ZM17.9992 2.16667C18.8736 2.16667 19.5825 2.87555 19.5825 3.75H20.9158C20.9158 2.13917 19.61 0.833333 17.9992 0.833333V2.16667ZM32.3326 10.5C32.3326 11.3743 31.6236 12.0833 30.749 12.0833V13.4167C32.3598 13.4167 33.666 12.1109 33.666 10.5H32.3326ZM30.749 12.0833C29.8747 12.0833 29.166 11.3746 29.166 10.5H27.8326C27.8326 12.1107 29.1381 13.4167 30.749 13.4167V12.0833ZM29.166 10.5C29.166 9.62555 29.8748 8.91667 30.7493 8.91667V7.58333C29.1385 7.58333 27.8326 8.88917 27.8326 10.5H29.166ZM30.7493 8.91667C31.6237 8.91667 32.3326 9.62555 32.3326 10.5H33.666C33.666 8.88917 32.3601 7.58333 30.7493 7.58333V8.91667Z" fill="#7340B3"/>
<g style="mix-blend-mode:lighten" opacity="0.4">
<path d="M0 -3H18V33H0V-3Z" fill="white"/>
</g>
</g>
</g>
</svg>
