<svg width="16" height="16" viewBox="0 0 16 16" fill="none" xmlns="http://www.w3.org/2000/svg">
<path d="M16 0H0V16H16V0Z" fill="white" fill-opacity="0.01"/>
<path d="M7.11935 6.38022C5.15645 6.28552 3.79205 6.98536 3.02613 8.47973C1.87723 10.7213 2.82675 14.3891 6.65962 14.3891C10.4925 14.3891 10.6034 10.6854 10.6034 10.2974C10.6034 10.0387 10.6034 8.59239 10.6034 5.95842C11.4232 6.47769 12.1144 6.79026 12.6769 6.89612C13.2395 7.00202 13.5972 7.04896 13.7499 7.03693V4.87832C13.2295 4.81559 12.7795 4.69602 12.3999 4.51962C11.8304 4.25499 10.7013 3.52062 10.7013 2.44427C10.702 2.44953 10.702 2.17189 10.7013 1.61133H8.32855C8.32152 6.88336 8.32152 9.77869 8.32855 10.2974C8.33915 11.0754 7.73559 12.1637 6.51185 12.1637C5.28809 12.1637 4.68452 11.0763 4.68452 10.3749C4.68452 9.94546 4.83199 9.32306 5.44169 8.86216C5.80325 8.58886 6.30509 8.47973 7.11935 8.47973C7.11935 8.22786 7.11935 7.52802 7.11935 6.38022Z" stroke="white" stroke-linejoin="round"/>
</svg>
