<svg width="16" height="16" viewBox="0 0 16 16" fill="none" xmlns="http://www.w3.org/2000/svg">
<path d="M12.3328 7.23707C12.2815 4.33597 9.91369 2 7.00033 2C4.05479 2 1.66699 4.3878 1.66699 7.33333C1.66699 8.72337 2.19876 9.9892 3.06997 10.9385L2.67047 13.3419L5.04199 12.3233C6.08689 12.6707 7.07299 12.7576 8.00033 12.5839" stroke="white" stroke-linecap="round" stroke-linejoin="round"/>
<path d="M5.04199 6.82168C5.45619 6.82168 5.79199 6.48341 5.79199 6.06611C5.79199 5.64885 5.45619 5.31055 5.04199 5.31055C4.62779 5.31055 4.29199 5.64885 4.29199 6.06611C4.29199 6.48341 4.62779 6.82168 5.04199 6.82168Z" fill="white"/>
<path d="M8.04199 6.82168C8.45619 6.82168 8.79199 6.48341 8.79199 6.06611C8.79199 5.64885 8.45619 5.31055 8.04199 5.31055C7.62779 5.31055 7.29199 5.64885 7.29199 6.06611C7.29199 6.48341 7.62779 6.82168 8.04199 6.82168Z" fill="white"/>
<path d="M12.9203 13.3098C12.3375 13.7434 11.6152 14 10.833 14C8.90001 14 7.33301 12.433 7.33301 10.5C7.33301 8.567 8.90001 7 10.833 7C12.766 7 14.333 8.567 14.333 10.5C14.333 11.0332 14.2138 11.5386 14.0005 11.9909" stroke="white" stroke-linecap="round" stroke-linejoin="round"/>
<path d="M14.0011 11.9902L14.3336 13.9993L12.9209 13.3091" stroke="white" stroke-linecap="round" stroke-linejoin="round"/>
<path d="M11.8955 10.2661C11.5848 10.2661 11.333 10.0124 11.333 9.69948C11.333 9.38651 11.5848 9.13281 11.8955 9.13281C12.2062 9.13281 12.458 9.38651 12.458 9.69948C12.458 10.0124 12.2062 10.2661 11.8955 10.2661Z" fill="white"/>
<path d="M9.64551 10.2661C9.33484 10.2661 9.08301 10.0124 9.08301 9.69948C9.08301 9.38651 9.33484 9.13281 9.64551 9.13281C9.95617 9.13281 10.208 9.38651 10.208 9.69948C10.208 10.0124 9.95617 10.2661 9.64551 10.2661Z" fill="white"/>
</svg>
