<svg width="100" height="21" viewBox="0 0 100 21" fill="none" xmlns="http://www.w3.org/2000/svg">
<g clip-path="url(#clip0_1615_22199)">
<path d="M54.694 9.04731H52.4775L56.1281 1.91523H59.6483L57.3667 6.33976H58.2794L56.78 20.9341H53.4554L54.694 9.04731ZM61.9299 7.4624H59.518L59.7787 4.95297H62.1907L62.5167 1.8492H66.102L65.7761 4.95297H70.7305L69.7526 1.78316H73.664L75.3589 7.4624H73.338H71.4475H65.4502L64.5375 16.4435V17.0379L62.1255 20.9341H58.2142L60.9521 16.4435L61.9299 7.4624ZM71.9691 9.11335L71.1216 17.4341C71.1216 17.6322 71.1868 17.8303 71.3172 18.0284C71.4475 18.1605 71.6431 18.2926 71.9039 18.2926H74.4462L73.0121 20.9341H70.0134C69.6223 20.9341 69.2311 20.8681 68.9052 20.736C68.5792 20.6039 68.3185 20.4058 68.0577 20.1417C67.797 19.8775 67.6666 19.5473 67.5362 19.2171C67.4058 18.8869 67.4058 18.4907 67.4058 18.0945L68.3185 9.24542H71.9691V9.11335Z" fill="#404040"/>
<path d="M18.4481 3.16963L18.2525 5.41492H20.5993L19.4259 17.0376C19.4259 17.2357 19.2955 17.4338 19.1652 17.5659C18.9696 17.764 18.774 17.83 18.5785 17.83H15.645L16.4924 9.64133L16.9487 5.41492L17.2095 3.16963H14.0804L12.3203 20.2074H19.4259C19.7519 20.2074 20.143 20.1413 20.5993 20.0093C20.9905 19.8111 21.3164 19.613 21.5772 19.3489C21.9031 19.0847 22.1639 18.7545 22.2942 18.4243C22.4898 18.0942 22.6202 17.6979 22.6202 17.3017L24.0543 3.16963H18.4481Z" fill="#404040"/>
<path d="M12.5815 1.84883H8.99609L8.73533 4.09411H6.25815L6.51891 1.84883H2.93351L2.67275 4.09411H1.7601L1.49935 6.73562H2.41199L1.43416 16.3771C1.69492 16.7073 2.08605 17.0375 2.67275 17.3677C1.89048 17.6318 1.10821 17.896 0.325945 18.0941L0 20.9337C1.04302 20.7356 2.08605 20.4715 3.25945 20.0752C4.1721 19.7451 5.08475 19.4149 5.99739 19.0847C6.77966 19.4149 7.62712 19.7451 8.47458 20.0752C9.5176 20.4715 10.5606 20.7356 11.5385 20.9337L11.7992 18.1602C11.0169 17.962 10.2999 17.6979 9.58279 17.4337C10.2347 17.0375 10.7562 16.7073 11.0821 16.4432L12.06 6.80166H12.9726L13.2334 4.16015H12.3207L12.5815 1.84883ZM7.56193 15.1885C7.23598 15.3866 6.84485 15.5186 6.51891 15.7168C6.45372 15.7828 6.38853 15.7828 6.25815 15.8488L6.06258 15.7168C5.73664 15.5186 5.41069 15.3866 5.14994 15.1885L5.99739 6.66959H8.47458L7.56193 15.1885Z" fill="#404040"/>
<path d="M34.4785 16.0468L34.5437 20.8676H37.2817L37.2165 16.0468H34.4785Z" fill="#404040"/>
<path d="M26.7859 16.0468L25.6777 20.8676H28.4809L29.5239 16.0468H26.7859Z" fill="#404040"/>
<path d="M29.068 20.8676H30.8281C31.1541 20.8676 31.48 20.8016 31.806 20.6695C32.1319 20.5374 32.3927 20.3393 32.6534 20.1412C32.9142 19.9431 33.1097 19.6789 33.2401 19.3487C33.3705 19.0185 33.5009 18.7544 33.5661 18.4242L33.892 15.0563H37.8685L38.1293 12.4148H34.1528L34.3483 10.8299H38.3249L38.5856 8.18835H37.2166L38.39 5.94307H35.0002L33.8268 8.18835H31.6756L31.0889 5.94307H27.699L28.4161 8.18835H27.0472L26.7864 10.8299H30.8281L30.6326 12.4148H26.5908L26.3301 15.0563H30.3718C30.3718 15.0563 30.111 17.6978 29.9807 18.6884C29.8503 19.6129 29.068 20.8676 29.068 20.8676Z" fill="#404040"/>
<path d="M45.2998 2.17902L45.0391 4.4243L50.3194 4.09411L50.5801 1.84883L45.2998 2.17902Z" fill="#404040"/>
<path d="M34.8698 1.84883H30.5673L30.8281 2.64128H27.6338L27.373 5.28279H38.9115L39.1723 2.64128H35.1305L34.8698 1.84883Z" fill="#404040"/>
<path d="M43.7349 4.49043L43.9305 2.24515L40.4103 2.44326L40.3451 3.43383L40.2147 4.68854L38.7154 18.6225L37.8027 20.8678H41.3229L42.2356 18.6225L43.2134 9.31119H45.3647L44.1913 20.8678H47.7115L48.8849 9.31119H49.7975L50.0583 7.0659H43.4742L43.7349 4.49043Z" fill="#404040"/>
<path d="M88.5918 3.76393L89.5045 2.11299H86.4406L83.833 6.66959H86.9621L88.5918 3.76393Z" fill="#404040"/>
<path d="M88.5914 5.67902H91.0686L90.7426 8.71676H83.1807L82.9199 11.0941H86.5705L83.8326 17.6979H87.2224L89.9603 11.0941H93.4805L93.0894 15.1885C93.0242 15.5847 93.0894 15.9149 93.2198 16.2451C93.285 16.5752 93.4805 16.8394 93.6761 17.1035C93.8717 17.3677 94.1324 17.5658 94.4584 17.6979C94.7191 17.83 95.0451 17.896 95.4362 17.896H98.2393L99.5431 15.4526H97.1311C96.9356 15.4526 96.74 15.3866 96.6096 15.1885C96.4792 15.0564 96.4141 14.8583 96.4141 14.6602L96.8052 11.0941H99.7387L99.9995 8.71676H94.1324L94.4584 5.61298L99.3476 5.67902L99.6083 3.43374H94.7191L94.9147 1.84883H91.5249L91.3293 3.43374H89.83L88.5914 5.67902Z" fill="#404040"/>
<path d="M82.5291 18.6227L81.0298 16.2453L82.5291 11.8868H81.095L83.5722 6.07549H77.9007L77.64 8.45285H79.5956L77.0533 14.1321V14.2642H78.9437L76.4014 21H79.4001L79.726 20.0095L80.5083 21H99.0872L99.3479 18.6227H82.5291Z" fill="#404040"/>
<path fill-rule="evenodd" clip-rule="evenodd" d="M78.6176 2.57547C78.6176 2.57547 78.4872 2.9717 78.5524 3.30189C78.6176 3.76415 78.9436 4.29245 79.9866 4.62264L82.9853 5.54717C82.9853 4.29245 82.6593 3.16981 81.9423 2.17925C81.4207 1.51887 80.8341 1.32076 80.3777 1.32076C79.791 1.32076 78.9436 1.58491 78.6176 2.57547Z" fill=""/>
</g>
<defs>
<clipPath id="clip0_1615_22199">
<rect width="100" height="21" fill="white"/>
</clipPath>
</defs>
</svg>
